<svg xmlns="http://www.w3.org/2000/svg" width="9.173" height="6.885" viewBox="0 0 9.173 6.885" fill="none">
  <path d="M 2.832 5.564 L 0.932 3.664 C 0.829 3.562 0.691 3.504 0.546 3.504 C 0.401 3.504 0.262 3.562 0.16 3.664 C 0.058 3.766 0 3.905 0 4.05 C 0 4.122 0.014 4.193 0.042 4.259 C 0.069 4.325 0.109 4.385 0.16 4.436 L 2.448 6.724 C 2.662 6.938 3.007 6.938 3.22 6.724 L 9.013 0.932 C 9.115 0.829 9.173 0.691 9.173 0.546 C 9.173 0.401 9.115 0.262 9.013 0.16 C 8.911 0.058 8.772 0 8.627 0 C 8.482 0 8.343 0.058 8.241 0.16 L 2.832 5.564 Z" fill="currentColor" fill-rule="nonzero"></path>
</svg>