<svg xmlns="http://www.w3.org/2000/svg" width="42" height="42.066" viewBox="0 0 42 42.066" fill="none">
  <path d="M 17.937 15.292 C 21.221 7.451 32.507 5.378 38.361 11.602 C 44.269 17.108 42.731 27.922 35.572 31.568 C 36.245 27.157 34.759 22.6 31.781 19.486 C 28.371 15.772 22.852 14.104 17.937 15.29 L 17.937 15.292 Z M 33.843 29.436 C 33.846 24.603 31.106 20.28 26.883 18.149 C 28.742 27.799 19.431 36.92 9.766 34.779 C 11.811 39.122 16.108 42.004 21.08 42.063 C 28.019 42.231 33.937 36.289 33.841 29.436 L 33.843 29.436 Z M 18.481 26.831 C 10.529 25.453 5.051 17.016 7.107 9.138 C -0.591 12.48 -2.475 23.806 3.634 29.462 C 9.135 35.299 19.65 33.908 23.466 26.912 C 21.847 27.172 20.084 27.139 18.483 26.831 L 18.481 26.831 Z M 8.584 12.572 C 8.584 17.297 11.193 21.531 15.265 23.716 C 12.783 13.894 22.193 4.1 32.161 6.274 C 25.795 -4.836 8.556 -0.232 8.584 12.574 L 8.584 12.572 Z" fill="currentColor" fill-rule="nonzero"></path>
  <path d="M 17.937 15.292 L 16.937 15.292 L 18.86 15.678 L 17.937 15.292 Z M 38.361 11.602 L 37.632 12.287 L 37.655 12.311 L 37.679 12.334 L 38.361 11.602 Z M 35.572 31.568 L 34.584 31.417 L 34.29 33.343 L 36.026 32.459 L 35.572 31.568 Z M 31.781 19.486 L 31.044 20.162 L 31.051 20.169 L 31.058 20.177 L 31.781 19.486 Z M 17.937 15.29 L 17.703 14.318 L 16.937 14.503 L 16.937 15.29 L 17.937 15.29 Z M 33.843 29.436 L 33.843 30.436 L 34.842 30.436 L 34.843 29.437 L 33.843 29.436 Z M 26.883 18.149 L 27.334 17.256 L 25.516 16.338 L 25.901 18.338 L 26.883 18.149 Z M 9.766 34.779 L 9.982 33.802 L 7.993 33.362 L 8.861 35.205 L 9.766 34.779 Z M 21.08 42.063 L 21.104 41.063 L 21.091 41.063 L 21.08 42.063 Z M 33.841 29.436 L 33.841 28.436 L 32.827 28.436 L 32.841 29.45 L 33.841 29.436 Z M 18.481 26.831 L 18.31 27.816 L 18.395 27.831 L 18.481 27.831 L 18.481 26.831 Z M 7.107 9.138 L 8.074 9.391 L 8.593 7.403 L 6.709 8.221 L 7.107 9.138 Z M 3.634 29.462 L 4.362 28.776 L 4.339 28.751 L 4.314 28.728 L 3.634 29.462 Z M 23.466 26.912 L 24.344 27.391 L 25.319 25.601 L 23.307 25.924 L 23.466 26.912 Z M 18.483 26.831 L 18.672 25.849 L 18.578 25.831 L 18.483 25.831 L 18.483 26.831 Z M 15.265 23.716 L 14.792 24.597 L 16.79 25.669 L 16.235 23.471 L 15.265 23.716 Z M 32.161 6.274 L 31.948 7.251 L 34.148 7.731 L 33.028 5.777 L 32.161 6.274 Z M 8.584 12.574 L 7.584 12.576 L 9.584 12.574 L 8.584 12.574 Z M 18.86 15.678 C 20.35 12.12 23.677 9.827 27.364 9.157 C 31.051 8.486 34.975 9.461 37.632 12.287 L 39.089 10.917 C 35.893 7.519 31.247 6.418 27.007 7.189 C 22.767 7.959 18.809 10.623 17.015 14.906 L 18.86 15.678 Z M 37.679 12.334 C 40.354 14.826 41.38 18.56 40.876 22.144 C 40.373 25.728 38.357 29.028 35.119 30.677 L 36.026 32.459 C 39.946 30.463 42.279 26.533 42.857 22.422 C 43.435 18.311 42.276 13.884 39.042 10.87 L 37.679 12.334 Z M 36.561 31.719 C 37.281 26.999 35.695 22.132 32.504 18.794 L 31.058 20.177 C 33.823 23.069 35.21 27.315 34.584 31.417 L 36.561 31.719 Z M 32.518 18.809 C 28.86 14.825 22.968 13.048 17.703 14.318 L 18.172 16.262 C 22.735 15.161 27.882 16.718 31.044 20.162 L 32.518 18.809 Z M 16.937 15.29 L 16.937 15.292 L 18.937 15.292 L 18.937 15.29 L 16.937 15.29 Z M 34.843 29.437 C 34.847 24.219 31.887 19.555 27.334 17.256 L 26.432 19.041 C 30.325 21.006 32.846 24.987 32.843 29.436 L 34.843 29.437 Z M 25.901 18.338 C 27.624 27.284 18.943 35.787 9.982 33.802 L 9.55 35.755 C 19.919 38.052 29.859 28.314 27.865 17.959 L 25.901 18.338 Z M 8.861 35.205 C 11.065 39.886 15.704 42.999 21.068 43.063 L 21.091 41.063 C 16.512 41.009 12.557 38.358 10.671 34.353 L 8.861 35.205 Z M 21.055 43.063 C 28.566 43.244 34.944 36.838 34.841 29.422 L 32.841 29.45 C 32.929 35.74 27.472 41.217 21.104 41.063 L 21.055 43.063 Z M 33.841 30.436 L 33.843 30.436 L 33.843 28.436 L 33.841 28.436 L 33.841 30.436 Z M 18.652 25.845 C 11.275 24.567 6.166 16.701 8.074 9.391 L 6.139 8.886 C 3.935 17.332 9.784 26.339 18.31 27.816 L 18.652 25.845 Z M 6.709 8.221 C 2.494 10.051 -0.078 14.04 -0.793 18.265 C -1.508 22.49 -0.392 27.097 2.955 30.196 L 4.314 28.728 C 1.551 26.171 0.555 22.288 1.179 18.599 C 1.803 14.912 4.022 11.568 7.505 10.056 L 6.709 8.221 Z M 2.907 30.148 C 8.875 36.481 20.204 34.982 24.344 27.391 L 22.588 26.433 C 19.097 32.834 9.395 34.117 4.362 28.776 L 2.907 30.148 Z M 23.307 25.924 C 21.805 26.166 20.16 26.135 18.672 25.849 L 18.294 27.813 C 20.007 28.142 21.888 28.178 23.624 27.899 L 23.307 25.924 Z M 18.483 25.831 L 18.481 25.831 L 18.481 27.831 L 18.483 27.831 L 18.483 25.831 Z M 7.584 12.572 C 7.584 17.672 10.402 22.241 14.792 24.597 L 15.738 22.835 C 11.985 20.821 9.584 16.921 9.584 12.572 L 7.584 12.572 Z M 16.235 23.471 C 13.934 14.367 22.708 5.236 31.948 7.251 L 32.374 5.297 C 21.678 2.964 11.632 13.421 14.296 23.961 L 16.235 23.471 Z M 33.028 5.777 C 26.153 -6.223 7.554 -1.256 7.584 12.576 L 9.584 12.572 C 9.558 0.793 25.437 -3.45 31.293 6.771 L 33.028 5.777 Z M 9.584 12.574 L 9.584 12.572 L 7.584 12.572 L 7.584 12.574 L 9.584 12.574 Z" fill="currentColor" fill-rule="nonzero"></path>
</svg>