<svg xmlns="http://www.w3.org/2000/svg" width="38.760" height="38.756" viewBox="0 0 38.760 38.756" fill="none">
  <path d="M 28.426 0 L 32.943 4.519 L 26.876 10.587 C 24.813 12.651 22.082 13.696 19.378 13.692 C 16.676 13.696 13.943 12.651 11.881 10.587 L 5.813 4.519 L 10.331 0 L 16.398 6.068 C 17.23 6.895 18.289 7.299 19.376 7.302 C 20.464 7.299 21.523 6.897 22.355 6.068 L 28.422 0 L 28.426 0 Z M 38.758 28.424 L 32.691 22.356 C 31.863 21.525 31.461 20.466 31.458 19.378 C 31.461 18.289 31.863 17.23 32.691 16.4 L 38.758 10.332 L 34.241 5.813 L 28.173 11.881 C 26.109 13.943 25.064 16.676 25.068 19.378 C 25.064 22.08 26.109 24.813 28.173 26.874 L 34.241 32.942 L 38.76 28.424 L 38.758 28.424 Z M 10.332 38.756 L 16.4 32.689 C 17.231 31.859 18.289 31.458 19.378 31.454 C 20.466 31.458 21.525 31.859 22.356 32.689 L 28.424 38.756 L 32.943 34.237 L 26.876 28.17 C 24.813 26.105 22.082 25.06 19.378 25.064 C 16.676 25.06 13.943 26.105 11.881 28.17 L 5.813 34.237 L 10.332 38.756 Z M 0 10.332 L 6.068 16.4 C 6.895 17.231 7.297 18.29 7.3 19.378 C 7.297 20.466 6.895 21.525 6.068 22.356 L 0 28.424 L 4.519 32.943 L 10.587 26.876 C 12.651 24.813 13.696 22.082 13.692 19.38 C 13.696 16.678 12.651 13.945 10.587 11.882 L 4.519 5.815 L 0 10.334 L 0 10.332 Z" fill="currentColor" fill-rule="nonzero"></path>
  <path d="M 28.426 0 L 29.133 -0.707 L 28.84 -1 L 28.426 -1 L 28.426 0 Z M 32.943 4.519 L 33.65 5.226 L 34.357 4.519 L 33.651 3.812 L 32.943 4.519 Z M 26.876 10.587 L 26.169 9.88 L 26.168 9.88 L 26.876 10.587 Z M 19.378 13.692 L 19.38 12.692 L 19.377 12.692 L 19.378 13.692 Z M 11.881 10.587 L 12.588 9.88 L 12.588 9.88 L 11.881 10.587 Z M 5.813 4.519 L 5.106 3.812 L 4.399 4.519 L 5.106 5.226 L 5.813 4.519 Z M 10.331 0 L 11.038 -0.707 L 10.331 -1.414 L 9.623 -0.707 L 10.331 0 Z M 16.398 6.068 L 15.691 6.775 L 15.693 6.776 L 16.398 6.068 Z M 19.376 7.302 L 19.373 8.302 L 19.38 8.302 L 19.376 7.302 Z M 22.355 6.068 L 23.061 6.775 L 23.062 6.775 L 22.355 6.068 Z M 28.422 0 L 28.422 -1 L 28.008 -1 L 27.715 -0.707 L 28.422 0 Z M 38.758 28.424 L 38.051 29.131 L 38.344 29.424 L 38.758 29.424 L 38.758 28.424 Z M 32.691 22.356 L 31.982 23.062 L 31.984 23.064 L 32.691 22.356 Z M 31.458 19.378 L 30.458 19.375 L 30.458 19.382 L 31.458 19.378 Z M 32.691 16.4 L 31.984 15.693 L 31.983 15.694 L 32.691 16.4 Z M 38.758 10.332 L 39.465 11.04 L 40.172 10.333 L 39.465 9.625 L 38.758 10.332 Z M 34.241 5.813 L 34.948 5.106 L 34.241 4.399 L 33.534 5.106 L 34.241 5.813 Z M 28.173 11.881 L 28.88 12.588 L 28.88 12.588 L 28.173 11.881 Z M 25.068 19.378 L 26.068 19.38 L 26.068 19.377 L 25.068 19.378 Z M 28.173 26.874 L 28.88 26.167 L 28.88 26.166 L 28.173 26.874 Z M 34.241 32.942 L 33.534 33.649 L 34.241 34.356 L 34.948 33.649 L 34.241 32.942 Z M 38.76 28.424 L 39.467 29.131 L 41.175 27.424 L 38.76 27.424 L 38.76 28.424 Z M 10.332 38.756 L 9.625 39.464 L 10.332 40.171 L 11.04 39.464 L 10.332 38.756 Z M 16.4 32.689 L 15.694 31.981 L 15.693 31.982 L 16.4 32.689 Z M 19.378 31.454 L 19.382 30.454 L 19.375 30.454 L 19.378 31.454 Z M 22.356 32.689 L 23.064 31.982 L 23.063 31.981 L 22.356 32.689 Z M 28.424 38.756 L 27.717 39.464 L 28.424 40.171 L 29.131 39.464 L 28.424 38.756 Z M 32.943 34.237 L 33.65 34.944 L 34.358 34.237 L 33.65 33.53 L 32.943 34.237 Z M 26.876 28.17 L 26.168 28.876 L 26.169 28.877 L 26.876 28.17 Z M 19.378 25.064 L 19.377 26.064 L 19.38 26.064 L 19.378 25.064 Z M 11.881 28.17 L 12.588 28.877 L 12.588 28.876 L 11.881 28.17 Z M 5.813 34.237 L 5.106 33.53 L 4.399 34.237 L 5.106 34.944 L 5.813 34.237 Z M 0 10.332 L 0.707 9.625 L -1 7.918 L -1 10.332 L 0 10.332 Z M 6.068 16.4 L 6.776 15.694 L 6.775 15.693 L 6.068 16.4 Z M 7.3 19.378 L 8.3 19.382 L 8.3 19.375 L 7.3 19.378 Z M 6.068 22.356 L 6.775 23.064 L 6.776 23.062 L 6.068 22.356 Z M 0 28.424 L -0.707 27.717 L -1.414 28.424 L -0.707 29.131 L 0 28.424 Z M 4.519 32.943 L 3.812 33.65 L 4.519 34.358 L 5.226 33.65 L 4.519 32.943 Z M 10.587 26.876 L 9.88 26.168 L 9.88 26.169 L 10.587 26.876 Z M 13.692 19.38 L 12.692 19.379 L 12.692 19.381 L 13.692 19.38 Z M 10.587 11.882 L 9.88 12.59 L 9.88 12.59 L 10.587 11.882 Z M 4.519 5.815 L 5.226 5.108 L 4.519 4.401 L 3.812 5.108 L 4.519 5.815 Z M 0 10.334 L -1 10.334 L -1 12.748 L 0.707 11.041 L 0 10.334 Z M 27.719 0.707 L 32.236 5.226 L 33.651 3.812 L 29.133 -0.707 L 27.719 0.707 Z M 32.236 3.812 L 26.169 9.88 L 27.583 11.294 L 33.65 5.226 L 32.236 3.812 Z M 26.168 9.88 C 24.301 11.749 21.828 12.696 19.38 12.692 L 19.377 14.692 C 22.337 14.696 25.326 13.553 27.583 11.294 L 26.168 9.88 Z M 19.377 12.692 C 16.93 12.696 14.456 11.749 12.588 9.88 L 11.173 11.294 C 13.431 13.553 16.421 14.696 19.38 14.692 L 19.377 12.692 Z M 12.588 9.88 L 6.52 3.812 L 5.106 5.226 L 11.174 11.294 L 12.588 9.88 Z M 6.52 5.226 L 11.038 0.707 L 9.623 -0.707 L 5.106 3.812 L 6.52 5.226 Z M 9.624 0.707 L 15.691 6.775 L 17.105 5.36 L 11.038 -0.707 L 9.624 0.707 Z M 15.693 6.776 C 16.719 7.798 18.034 8.298 19.373 8.302 L 19.38 6.302 C 18.544 6.299 17.741 5.993 17.104 5.359 L 15.693 6.776 Z M 19.38 8.302 C 20.718 8.298 22.034 7.8 23.061 6.775 L 21.648 5.36 C 21.012 5.994 20.21 6.299 19.373 6.302 L 19.38 8.302 Z M 23.062 6.775 L 29.129 0.707 L 27.715 -0.707 L 21.648 5.36 L 23.062 6.775 Z M 28.422 1 L 28.426 1 L 28.426 -1 L 28.422 -1 L 28.422 1 Z M 39.465 27.717 L 33.398 21.649 L 31.984 23.064 L 38.051 29.131 L 39.465 27.717 Z M 33.399 21.651 C 32.766 21.015 32.461 20.212 32.458 19.375 L 30.458 19.382 C 30.462 20.72 30.96 22.035 31.982 23.062 L 33.399 21.651 Z M 32.458 19.381 C 32.461 18.542 32.766 17.74 33.399 17.106 L 31.983 15.694 C 30.959 16.719 30.462 18.035 30.458 19.375 L 32.458 19.381 Z M 33.398 17.107 L 39.465 11.04 L 38.051 9.625 L 31.984 15.693 L 33.398 17.107 Z M 39.465 9.625 L 34.948 5.106 L 33.533 6.52 L 38.051 11.039 L 39.465 9.625 Z M 33.534 5.106 L 27.466 11.174 L 28.88 12.588 L 34.948 6.52 L 33.534 5.106 Z M 27.466 11.173 C 25.207 13.431 24.064 16.421 24.068 19.38 L 26.068 19.377 C 26.064 16.93 27.011 14.456 28.88 12.588 L 27.466 11.173 Z M 24.068 19.377 C 24.064 22.335 25.207 25.326 27.467 27.582 L 28.88 26.166 C 27.011 24.301 26.064 21.826 26.068 19.38 L 24.068 19.377 Z M 27.466 27.581 L 33.534 33.649 L 34.948 32.234 L 28.88 26.167 L 27.466 27.581 Z M 34.948 33.649 L 39.467 29.131 L 38.053 27.717 L 33.534 32.234 L 34.948 33.649 Z M 38.76 27.424 L 38.758 27.424 L 38.758 29.424 L 38.76 29.424 L 38.76 27.424 Z M 11.04 39.464 L 17.107 33.396 L 15.693 31.982 L 9.625 38.049 L 11.04 39.464 Z M 17.106 33.397 C 17.742 32.762 18.543 32.457 19.382 32.454 L 19.375 30.454 C 18.034 30.459 16.72 30.956 15.694 31.981 L 17.106 33.397 Z M 19.375 32.454 C 20.212 32.457 21.014 32.762 21.65 33.397 L 23.063 31.981 C 22.036 30.956 20.72 30.459 19.382 30.454 L 19.375 32.454 Z M 21.649 33.396 L 27.717 39.464 L 29.131 38.049 L 23.064 31.982 L 21.649 33.396 Z M 29.131 39.464 L 33.65 34.944 L 32.236 33.53 L 27.717 38.049 L 29.131 39.464 Z M 33.65 33.53 L 27.583 27.462 L 26.169 28.877 L 32.236 34.944 L 33.65 33.53 Z M 27.583 27.463 C 25.326 25.203 22.337 24.06 19.377 24.064 L 19.38 26.064 C 21.828 26.061 24.301 27.007 26.168 28.876 L 27.583 27.463 Z M 19.38 24.064 C 16.421 24.06 13.431 25.203 11.173 27.463 L 12.588 28.876 C 14.456 27.007 16.93 26.061 19.377 26.064 L 19.38 24.064 Z M 11.174 27.462 L 5.106 33.53 L 6.52 34.944 L 12.588 28.877 L 11.174 27.462 Z M 5.106 34.944 L 9.625 39.464 L 11.04 38.049 L 6.52 33.53 L 5.106 34.944 Z M -0.707 11.04 L 5.36 17.107 L 6.775 15.693 L 0.707 9.625 L -0.707 11.04 Z M 5.359 17.106 C 5.992 17.742 6.298 18.545 6.3 19.382 L 8.3 19.375 C 8.296 18.036 7.799 16.721 6.776 15.694 L 5.359 17.106 Z M 6.3 19.375 C 6.298 20.212 5.992 21.015 5.359 21.651 L 6.776 23.062 C 7.799 22.035 8.296 20.72 8.3 19.382 L 6.3 19.375 Z M 5.36 21.649 L -0.707 27.717 L 0.707 29.131 L 6.775 23.064 L 5.36 21.649 Z M -0.707 29.131 L 3.812 33.65 L 5.226 32.236 L 0.707 27.717 L -0.707 29.131 Z M 5.226 33.65 L 11.294 27.583 L 9.88 26.169 L 3.812 32.236 L 5.226 33.65 Z M 11.294 27.583 C 13.553 25.326 14.696 22.337 14.692 19.379 L 12.692 19.381 C 12.696 21.828 11.75 24.301 9.88 26.168 L 11.294 27.583 Z M 14.692 19.381 C 14.696 16.423 13.553 13.432 11.294 11.175 L 9.88 12.59 C 11.749 14.458 12.696 16.932 12.692 19.379 L 14.692 19.381 Z M 11.294 11.175 L 5.226 5.108 L 3.812 6.522 L 9.88 12.59 L 11.294 11.175 Z M 3.812 5.108 L -0.707 9.627 L 0.707 11.041 L 5.226 6.522 L 3.812 5.108 Z M 1 10.334 L 1 10.332 L -1 10.332 L -1 10.334 L 1 10.334 Z" fill="currentColor" fill-rule="nonzero"></path>
</svg>