<svg xmlns="http://www.w3.org/2000/svg" width="97.099" height="97.090" viewBox="0 0 97.099 97.090" fill="none">
  <path d="M 71.211 0 L 82.528 11.321 L 67.327 26.522 C 62.16 31.693 55.319 34.31 48.545 34.301 C 41.776 34.31 34.93 31.693 29.763 26.522 L 14.563 11.321 L 25.88 0 L 41.08 15.2 C 43.163 17.274 45.816 18.284 48.541 18.293 C 51.266 18.284 53.919 17.279 56.001 15.2 L 71.202 0 L 71.211 0 Z M 97.095 71.206 L 81.895 56.006 C 79.821 53.923 78.815 51.27 78.806 48.545 C 78.815 45.816 79.821 43.163 81.895 41.084 L 97.095 25.884 L 85.778 14.563 L 70.578 29.763 C 65.406 34.93 62.789 41.776 62.798 48.545 C 62.789 55.315 65.406 62.161 70.578 67.323 L 85.778 82.523 L 97.099 71.206 L 97.095 71.206 Z M 25.884 97.09 L 41.084 81.89 C 43.167 79.812 45.816 78.806 48.545 78.797 C 51.27 78.806 53.923 79.812 56.006 81.89 L 71.206 97.09 L 82.528 85.769 L 67.327 70.569 C 62.16 65.397 55.319 62.78 48.545 62.789 C 41.776 62.78 34.93 65.397 29.763 70.569 L 14.563 85.769 L 25.884 97.09 Z M 0 25.884 L 15.2 41.084 C 17.274 43.167 18.28 45.82 18.289 48.545 C 18.28 51.27 17.274 53.923 15.2 56.006 L 0 71.206 L 11.321 82.528 L 26.522 67.327 C 31.693 62.161 34.31 55.319 34.301 48.55 C 34.31 41.78 31.693 34.934 26.522 29.767 L 11.321 14.567 L 0 25.889 L 0 25.884 Z" fill="currentColor" fill-rule="nonzero"></path>
</svg>