<svg xmlns="http://www.w3.org/2000/svg" width="30.400" height="32" viewBox="0 0 30.400 32" fill="none">
  <path d="M 0 16.348 L 0.002 16.188 L 0.005 16.028 L 0.01 15.867 L 0.016 15.707 L 0.024 15.546 L 0.034 15.386 L 0.045 15.226 L 0.058 15.065 L 0.073 14.905 L 0.09 14.745 L 0.108 14.585 L 0.127 14.425 L 0.148 14.265 L 0.171 14.105 L 0.196 13.946 L 0.222 13.786 L 0.25 13.627 L 0.28 13.468 L 0.311 13.31 L 0.344 13.151 L 0.378 12.993 L 0.414 12.835 L 0.452 12.677 L 0.491 12.52 L 0.532 12.363 L 0.575 12.206 L 0.619 12.05 L 0.665 11.894 L 0.712 11.739 L 0.762 11.584 L 0.812 11.429 L 0.865 11.274 L 0.918 11.121 L 0.974 10.967 L 1.031 10.814 L 1.09 10.662 L 1.15 10.51 L 1.212 10.359 L 1.275 10.208 L 1.34 10.058 L 1.407 9.908 L 1.475 9.759 L 1.544 9.611 L 1.616 9.463 L 1.688 9.316 L 1.763 9.169 L 1.839 9.023 L 1.916 8.878 L 1.995 8.734 L 2.075 8.59 L 2.157 8.447 L 2.24 8.305 L 2.325 8.163 L 2.412 8.022 L 2.499 7.883 L 2.589 7.743 L 2.68 7.605 L 2.772 7.468 L 2.865 7.331 L 2.961 7.195 L 3.057 7.06 L 3.155 6.927 L 3.254 6.793 L 3.355 6.661 L 3.457 6.53 L 3.561 6.4 L 3.666 6.271 L 3.772 6.142 L 3.88 6.015 L 3.989 5.889 L 4.099 5.763 L 4.21 5.639 L 4.323 5.516 L 4.438 5.394 L 4.553 5.273 L 4.67 5.153 L 4.788 5.034 L 4.908 4.916 L 5.028 4.799 L 5.15 4.684 L 5.273 4.57 L 5.397 4.456 L 5.523 4.344 L 5.65 4.233 L 5.778 4.124 L 5.907 4.015 L 6.037 3.908 L 6.168 3.802 L 6.301 3.698 L 6.435 3.594 L 6.569 3.492 L 6.705 3.391 L 6.842 3.291 L 6.98 3.193 L 7.119 3.096 L 7.259 3.001 L 7.4 2.906 L 7.543 2.813 L 7.686 2.722 L 7.83 2.631 L 7.975 2.542 L 8.121 2.455 L 8.268 2.369 L 8.416 2.284 L 8.565 2.201 L 8.715 2.119 L 8.866 2.039 L 9.018 1.96 L 9.17 1.882 L 9.323 1.806 L 9.478 1.732 L 9.633 1.659 L 9.788 1.587 L 9.945 1.517 L 10.102 1.449 L 10.26 1.382 L 10.419 1.316 L 10.579 1.252 L 10.739 1.19 L 10.9 1.129 L 11.062 1.069 L 11.224 1.012 L 11.387 0.956 L 11.551 0.901 L 11.715 0.848 L 11.88 0.796 L 12.046 0.747 L 12.212 0.698 L 12.378 0.652 L 12.546 0.607 L 12.713 0.563 L 12.881 0.522 L 13.05 0.481 L 13.219 0.443 L 13.389 0.406 L 13.559 0.371 L 13.729 0.337 L 13.9 0.305 L 14.072 0.275 L 14.243 0.247 L 14.415 0.22 L 14.588 0.194 L 14.76 0.171 L 14.933 0.149 L 15.106 0.129 L 15.28 0.11 L 15.454 0.094 L 15.628 0.079 L 15.802 0.065 L 15.976 0.054 L 16.914 0 L 16.968 4.519 L 16.998 4.519 L 17.128 4.518 L 17.257 4.519 L 17.387 4.522 L 17.517 4.525 L 17.646 4.53 L 17.776 4.537 L 17.906 4.544 L 18.035 4.553 L 18.165 4.563 L 18.295 4.574 L 18.424 4.587 L 18.554 4.601 L 18.683 4.616 L 18.812 4.632 L 18.942 4.65 L 19.071 4.669 L 19.2 4.689 L 19.328 4.71 L 19.457 4.733 L 19.586 4.757 L 19.714 4.783 L 19.842 4.809 L 19.97 4.837 L 20.098 4.866 L 20.225 4.897 L 20.352 4.928 L 20.479 4.961 L 20.606 4.996 L 20.732 5.031 L 20.859 5.068 L 20.984 5.106 L 21.11 5.145 L 21.235 5.186 L 21.36 5.227 L 21.484 5.27 L 21.608 5.315 L 21.732 5.36 L 21.855 5.407 L 21.978 5.455 L 22.1 5.504 L 22.222 5.554 L 22.344 5.606 L 22.465 5.659 L 22.585 5.713 L 22.705 5.768 L 22.825 5.825 L 22.944 5.882 L 23.062 5.941 L 23.18 6.001 L 23.298 6.063 L 23.414 6.125 L 23.531 6.189 L 23.646 6.254 L 23.761 6.32 L 23.876 6.387 L 23.989 6.455 L 24.102 6.524 L 24.215 6.595 L 24.327 6.667 L 24.438 6.74 L 24.548 6.814 L 24.658 6.889 L 24.767 6.965 L 24.875 7.042 L 24.983 7.121 L 25.09 7.2 L 25.196 7.281 L 25.301 7.362 L 25.405 7.445 L 25.509 7.529 L 25.612 7.614 L 25.714 7.7 L 25.815 7.787 L 25.915 7.875 L 26.015 7.964 L 26.113 8.054 L 26.211 8.145 L 26.308 8.237 L 26.404 8.33 L 26.499 8.424 L 26.593 8.519 L 26.686 8.615 L 26.779 8.712 L 26.87 8.81 L 26.96 8.909 L 27.05 9.009 L 27.138 9.11 L 27.226 9.211 L 27.312 9.314 L 27.398 9.417 L 27.482 9.522 L 27.565 9.627 L 27.648 9.733 L 27.729 9.84 L 27.809 9.948 L 27.888 10.056 L 27.966 10.166 L 28.043 10.276 L 28.119 10.387 L 28.194 10.499 L 28.268 10.612 L 28.34 10.726 L 28.412 10.84 L 28.482 10.955 L 28.551 11.07 L 28.619 11.187 L 28.686 11.304 L 28.752 11.422 L 28.816 11.541 L 28.879 11.66 L 28.941 11.78 L 29.002 11.901 L 29.062 12.022 L 29.12 12.144 L 29.178 12.266 L 29.234 12.39 L 29.288 12.514 L 29.342 12.638 L 29.394 12.763 L 29.445 12.888 L 29.495 13.015 L 29.544 13.141 L 29.591 13.269 L 29.637 13.396 L 29.681 13.525 L 29.725 13.653 L 29.767 13.783 L 29.807 13.912 L 29.847 14.042 L 29.885 14.173 L 29.922 14.304 L 29.957 14.436 L 29.991 14.568 L 30.024 14.7 L 30.056 14.832 L 30.086 14.966 L 30.114 15.099 L 30.142 15.233 L 30.168 15.367 L 30.192 15.501 L 30.216 15.636 L 30.238 15.771 L 30.258 15.906 L 30.278 16.042 L 30.295 16.178 L 30.312 16.314 L 30.327 16.45 L 30.34 16.586 L 30.353 16.723 L 30.363 16.86 L 30.373 16.997 L 30.381 17.134 L 30.388 17.271 L 30.393 17.409 L 30.397 17.546 L 30.399 17.684 L 30.4 17.822 L 30.4 17.96 L 30.398 18.098 L 30.394 18.236 L 30.39 18.374 L 30.384 18.512 L 30.376 18.65 L 30.367 18.788 L 30.357 18.926 L 30.345 19.063 L 30.332 19.201 L 30.318 19.339 L 30.301 19.477 L 30.284 19.615 L 30.265 19.752 L 30.245 19.89 L 30.223 20.027 L 30.2 20.164 L 30.176 20.301 L 30.15 20.438 L 30.122 20.574 L 30.093 20.711 L 30.063 20.847 L 30.032 20.983 L 29.999 21.119 L 29.964 21.254 L 29.928 21.389 L 29.891 21.524 L 29.852 21.659 L 29.812 21.793 L 29.771 21.927 L 29.728 22.06 L 29.684 22.194 L 29.638 22.326 L 29.591 22.459 L 29.543 22.591 L 29.493 22.723 L 29.442 22.854 L 29.39 22.985 L 29.336 23.115 L 29.281 23.245 L 29.224 23.374 L 29.166 23.503 L 29.107 23.631 L 29.046 23.759 L 28.984 23.886 L 28.921 24.013 L 28.856 24.139 L 28.79 24.265 L 28.723 24.39 L 28.655 24.515 L 28.585 24.638 L 28.514 24.762 L 28.441 24.884 L 28.367 25.006 L 28.292 25.127 L 28.216 25.248 L 28.138 25.368 L 28.059 25.487 L 27.979 25.605 L 27.898 25.723 L 27.815 25.84 L 27.731 25.956 L 27.646 26.071 L 27.56 26.186 L 27.472 26.3 L 27.384 26.413 L 27.294 26.525 L 27.203 26.636 L 27.11 26.747 L 27.017 26.856 L 26.922 26.965 L 26.826 27.073 L 26.729 27.18 L 26.631 27.286 L 26.532 27.392 L 26.432 27.496 L 26.33 27.599 L 26.228 27.702 L 26.124 27.803 L 26.019 27.904 L 25.913 28.003 L 25.807 28.102 L 25.699 28.199 L 25.59 28.295 L 25.48 28.391 L 25.368 28.485 L 25.256 28.579 L 25.143 28.671 L 25.029 28.762 L 24.914 28.852 L 24.798 28.941 L 24.681 29.029 L 24.563 29.116 L 24.444 29.202 L 24.324 29.287 L 24.203 29.37 L 24.082 29.452 L 23.959 29.534 L 23.836 29.614 L 23.711 29.692 L 23.586 29.77 L 23.46 29.846 L 23.333 29.922 L 23.205 29.996 L 23.077 30.069 L 22.947 30.14 L 22.817 30.21 L 22.686 30.28 L 22.555 30.347 L 22.422 30.414 L 22.289 30.479 L 22.155 30.543 L 22.02 30.606 L 21.885 30.668 L 21.749 30.728 L 21.612 30.786 L 21.475 30.844 L 21.337 30.9 L 21.198 30.955 L 21.059 31.009 L 20.919 31.061 L 20.779 31.112 L 20.637 31.161 L 20.496 31.209 L 20.354 31.256 L 20.211 31.301 L 20.068 31.345 L 19.924 31.388 L 19.78 31.429 L 19.635 31.469 L 19.49 31.508 L 19.344 31.545 L 19.198 31.58 L 19.051 31.614 L 18.904 31.647 L 18.757 31.678 L 18.609 31.708 L 18.461 31.737 L 18.312 31.764 L 18.164 31.789 L 18.014 31.814 L 17.865 31.836 L 17.715 31.858 L 17.565 31.877 L 17.415 31.896 L 17.264 31.912 L 17.113 31.928 L 16.962 31.942 L 16.811 31.954 L 16.66 31.965 L 16.508 31.974 L 16.356 31.982 L 16.204 31.989 L 16.052 31.994 L 15.9 31.997 L 15.748 31.999 L 15.595 32 L 15.443 31.999 L 15.291 31.997 L 15.138 31.993 L 14.985 31.987 L 14.833 31.98 L 14.68 31.972 L 14.528 31.962 L 14.375 31.95 L 14.223 31.937 L 14.07 31.923 L 13.918 31.907 L 13.766 31.89 L 13.614 31.871 L 13.462 31.85 L 13.31 31.828 L 13.158 31.805 L 13.007 31.78 L 12.856 31.753 L 12.705 31.725 L 12.554 31.696 L 12.403 31.665 L 12.253 31.632 L 12.103 31.599 L 11.953 31.563 L 11.803 31.526 L 11.654 31.488 L 11.505 31.448 L 11.357 31.407 L 11.209 31.364 L 11.061 31.32 L 10.914 31.274 L 10.767 31.227 L 10.62 31.178 L 10.474 31.128 L 10.328 31.076 L 10.183 31.023 L 10.038 30.969 L 9.894 30.913 L 9.75 30.856 L 9.607 30.797 L 9.464 30.737 L 9.322 30.675 L 9.181 30.612 L 9.04 30.548 L 8.9 30.482 L 8.76 30.414 L 8.621 30.346 L 8.482 30.276 L 8.345 30.204 L 8.208 30.131 L 8.071 30.057 L 7.935 29.981 L 7.8 29.904 L 7.666 29.826 L 7.533 29.746 L 7.4 29.666 L 7.268 29.583 L 7.137 29.5 L 7.006 29.414 L 6.877 29.328 L 6.748 29.241 L 6.62 29.152 L 6.493 29.062 L 6.367 28.97 L 6.242 28.877 L 6.117 28.783 L 5.994 28.688 L 5.872 28.591 L 5.75 28.494 L 5.629 28.395 L 5.51 28.294 L 5.391 28.193 L 5.273 28.09 L 5.157 27.986 L 5.041 27.881 L 4.926 27.775 L 4.813 27.668 L 4.7 27.559 L 4.589 27.45 L 4.478 27.339 L 4.369 27.227 L 4.261 27.114 L 4.153 27 L 4.048 26.884 L 3.943 26.768 L 3.839 26.65 L 3.736 26.532 L 3.635 26.412 L 3.535 26.292 L 3.436 26.17 L 3.338 26.047 L 3.242 25.924 L 3.146 25.799 L 3.052 25.673 L 2.959 25.547 L 2.868 25.419 L 2.778 25.291 L 2.689 25.161 L 2.601 25.031 L 2.514 24.899 L 2.429 24.767 L 2.345 24.634 L 2.263 24.5 L 2.182 24.365 L 2.102 24.23 L 2.024 24.093 L 1.947 23.956 L 1.871 23.818 L 1.797 23.679 L 1.724 23.539 L 1.652 23.398 L 1.582 23.257 L 1.514 23.115 L 1.446 22.972 L 1.381 22.829 L 1.316 22.685 L 1.253 22.54 L 1.192 22.394 L 1.132 22.248 L 1.073 22.101 L 1.016 21.954 L 0.961 21.806 L 0.907 21.657 L 0.854 21.508 L 0.803 21.358 L 0.754 21.207 L 0.706 21.056 L 0.659 20.905 L 0.615 20.753 L 0.571 20.6 L 0.529 20.447 L 0.489 20.294 L 0.45 20.14 L 0.413 19.985 L 0.378 19.831 L 0.344 19.675 L 0.311 19.52 L 0.28 19.364 L 0.251 19.207 L 0.223 19.051 L 0.197 18.894 L 0.173 18.736 L 0.15 18.579 L 0.129 18.421 L 0.109 18.262 L 0.091 18.104 L 0.075 17.945 L 0.06 17.786 L 0.047 17.627 L 0.035 17.468 L 0.025 17.308 L 0.017 17.148 L 0.01 16.989 L 0.005 16.829 L 0.002 16.669 L 0 16.508 L 0 16.348 Z M 15.502 4.614 L 15.466 1.533 L 15.431 1.537 L 15.272 1.554 L 15.114 1.572 L 14.955 1.592 L 14.797 1.614 L 14.639 1.637 L 14.482 1.661 L 14.325 1.688 L 14.168 1.715 L 14.012 1.744 L 13.855 1.775 L 13.7 1.807 L 13.544 1.841 L 13.39 1.876 L 13.235 1.913 L 13.081 1.951 L 12.928 1.991 L 12.775 2.032 L 12.622 2.075 L 12.47 2.119 L 12.319 2.165 L 12.168 2.212 L 12.018 2.26 L 11.868 2.31 L 11.719 2.362 L 11.57 2.415 L 11.422 2.469 L 11.275 2.525 L 11.128 2.582 L 10.982 2.64 L 10.837 2.7 L 10.692 2.761 L 10.548 2.824 L 10.405 2.888 L 10.262 2.954 L 10.121 3.02 L 9.98 3.089 L 9.839 3.158 L 9.7 3.229 L 9.561 3.301 L 9.424 3.375 L 9.287 3.45 L 9.15 3.526 L 9.015 3.603 L 8.881 3.682 L 8.747 3.762 L 8.614 3.843 L 8.483 3.925 L 8.352 4.009 L 8.222 4.094 L 8.092 4.181 L 7.965 4.268 L 7.837 4.357 L 7.711 4.446 L 7.586 4.537 L 7.462 4.63 L 7.339 4.723 L 7.217 4.817 L 7.095 4.913 L 6.976 5.01 L 6.856 5.108 L 6.739 5.207 L 6.622 5.307 L 6.506 5.408 L 6.391 5.511 L 6.278 5.614 L 6.165 5.719 L 6.054 5.824 L 5.944 5.931 L 5.835 6.038 L 5.727 6.147 L 5.62 6.257 L 5.515 6.367 L 5.41 6.478 L 5.307 6.591 L 5.205 6.705 L 5.104 6.819 L 5.005 6.934 L 4.907 7.05 L 4.81 7.168 L 4.714 7.286 L 4.619 7.405 L 4.526 7.524 L 4.434 7.645 L 4.343 7.766 L 4.254 7.889 L 4.166 8.012 L 4.079 8.136 L 3.994 8.26 L 3.91 8.386 L 3.827 8.512 L 3.745 8.639 L 3.665 8.767 L 3.586 8.895 L 3.509 9.024 L 3.433 9.154 L 3.358 9.284 L 3.285 9.415 L 3.213 9.547 L 3.142 9.68 L 3.073 9.813 L 3.005 9.946 L 2.939 10.081 L 2.874 10.215 L 2.81 10.351 L 2.748 10.487 L 2.688 10.623 L 2.628 10.76 L 2.571 10.898 L 2.514 11.036 L 2.459 11.174 L 2.406 11.313 L 2.354 11.452 L 2.303 11.592 L 2.254 11.732 L 2.206 11.873 L 2.16 12.014 L 2.115 12.156 L 2.072 12.297 L 2.03 12.44 L 1.99 12.582 L 1.951 12.725 L 1.914 12.868 L 1.878 13.011 L 1.844 13.155 L 1.811 13.299 L 1.779 13.443 L 1.749 13.587 L 1.721 13.732 L 1.694 13.877 L 1.669 14.022 L 1.645 14.167 L 1.622 14.312 L 1.601 14.458 L 1.582 14.603 L 1.564 14.749 L 1.548 14.895 L 1.533 15.04 L 1.519 15.186 L 1.508 15.332 L 1.497 15.478 L 1.488 15.624 L 1.481 15.77 L 1.475 15.917 L 1.471 16.063 L 1.468 16.209 L 1.466 16.354 L 1.466 16.5 L 1.468 16.646 L 1.471 16.792 L 1.476 16.938 L 1.482 17.083 L 1.489 17.228 L 1.498 17.373 L 1.509 17.518 L 1.521 17.663 L 1.534 17.808 L 1.549 17.952 L 1.566 18.097 L 1.583 18.241 L 1.603 18.384 L 1.624 18.528 L 1.646 18.671 L 1.67 18.814 L 1.695 18.956 L 1.721 19.098 L 1.749 19.24 L 1.779 19.382 L 1.81 19.523 L 1.842 19.664 L 1.876 19.804 L 1.911 19.944 L 1.948 20.084 L 1.986 20.223 L 2.025 20.362 L 2.066 20.5 L 2.108 20.638 L 2.152 20.775 L 2.197 20.912 L 2.243 21.048 L 2.291 21.184 L 2.34 21.319 L 2.391 21.453 L 2.442 21.587 L 2.496 21.721 L 2.55 21.854 L 2.606 21.986 L 2.663 22.118 L 2.721 22.249 L 2.781 22.379 L 2.842 22.509 L 2.905 22.638 L 2.968 22.766 L 3.033 22.894 L 3.1 23.021 L 3.167 23.147 L 3.236 23.272 L 3.306 23.397 L 3.377 23.521 L 3.449 23.644 L 3.523 23.767 L 3.598 23.888 L 3.674 24.009 L 3.751 24.129 L 3.83 24.249 L 3.909 24.367 L 3.99 24.485 L 4.072 24.601 L 4.155 24.717 L 4.24 24.832 L 4.325 24.946 L 4.412 25.059 L 4.499 25.172 L 4.588 25.283 L 4.678 25.393 L 4.769 25.503 L 4.861 25.611 L 4.954 25.719 L 5.048 25.825 L 5.143 25.931 L 5.239 26.035 L 5.336 26.139 L 5.434 26.242 L 5.533 26.343 L 5.634 26.444 L 5.735 26.543 L 5.837 26.642 L 5.94 26.739 L 6.044 26.835 L 6.149 26.931 L 6.255 27.025 L 6.361 27.118 L 6.469 27.21 L 6.578 27.301 L 6.687 27.391 L 6.797 27.479 L 6.908 27.567 L 7.02 27.653 L 7.133 27.738 L 7.246 27.822 L 7.361 27.905 L 7.476 27.987 L 7.592 28.068 L 7.708 28.147 L 7.826 28.225 L 7.944 28.302 L 8.063 28.378 L 8.182 28.453 L 8.303 28.526 L 8.424 28.598 L 8.545 28.669 L 8.668 28.739 L 8.79 28.807 L 8.914 28.875 L 9.038 28.941 L 9.163 29.005 L 9.288 29.069 L 9.414 29.131 L 9.541 29.192 L 9.668 29.252 L 9.796 29.31 L 9.924 29.367 L 10.052 29.423 L 10.181 29.477 L 10.311 29.531 L 10.441 29.583 L 10.572 29.633 L 10.703 29.683 L 10.834 29.731 L 10.966 29.777 L 11.098 29.823 L 11.231 29.867 L 11.364 29.909 L 11.497 29.951 L 11.631 29.991 L 11.765 30.03 L 11.9 30.067 L 12.034 30.103 L 12.169 30.138 L 12.304 30.171 L 12.44 30.203 L 12.576 30.234 L 12.712 30.263 L 12.848 30.291 L 12.984 30.318 L 13.121 30.343 L 13.258 30.367 L 13.395 30.389 L 13.532 30.411 L 13.669 30.43 L 13.807 30.449 L 13.944 30.466 L 14.082 30.482 L 14.219 30.496 L 14.357 30.509 L 14.495 30.521 L 14.633 30.532 L 14.771 30.54 L 14.909 30.548 L 15.046 30.554 L 15.184 30.559 L 15.322 30.563 L 15.46 30.565 L 15.598 30.566 L 15.735 30.566 L 15.873 30.564 L 16.01 30.561 L 16.148 30.556 L 16.285 30.55 L 16.422 30.543 L 16.559 30.534 L 16.696 30.525 L 16.832 30.513 L 16.969 30.501 L 17.105 30.487 L 17.241 30.472 L 17.377 30.455 L 17.512 30.437 L 17.647 30.418 L 17.782 30.398 L 17.917 30.376 L 18.051 30.353 L 18.185 30.328 L 18.319 30.303 L 18.452 30.276 L 18.586 30.247 L 18.718 30.218 L 18.85 30.187 L 18.982 30.155 L 19.114 30.122 L 19.245 30.087 L 19.375 30.051 L 19.506 30.014 L 19.635 29.975 L 19.765 29.936 L 19.893 29.895 L 20.022 29.852 L 20.149 29.809 L 20.276 29.764 L 20.403 29.718 L 20.529 29.671 L 20.655 29.623 L 20.78 29.574 L 20.904 29.523 L 21.028 29.471 L 21.152 29.418 L 21.274 29.364 L 21.396 29.308 L 21.518 29.252 L 21.638 29.194 L 21.758 29.135 L 21.878 29.075 L 21.996 29.014 L 22.114 28.952 L 22.232 28.888 L 22.348 28.824 L 22.464 28.758 L 22.579 28.692 L 22.694 28.624 L 22.807 28.555 L 22.92 28.485 L 23.032 28.414 L 23.143 28.342 L 23.254 28.269 L 23.363 28.195 L 23.472 28.12 L 23.58 28.043 L 23.687 27.966 L 23.793 27.888 L 23.899 27.809 L 24.003 27.729 L 24.107 27.647 L 24.209 27.565 L 24.311 27.482 L 24.412 27.398 L 24.512 27.313 L 24.611 27.227 L 24.709 27.14 L 24.806 27.053 L 24.903 26.964 L 24.998 26.875 L 25.092 26.784 L 25.186 26.693 L 25.278 26.601 L 25.369 26.508 L 25.459 26.414 L 25.549 26.319 L 25.637 26.224 L 25.724 26.128 L 25.81 26.031 L 25.895 25.933 L 25.979 25.834 L 26.062 25.735 L 26.144 25.635 L 26.225 25.534 L 26.305 25.432 L 26.384 25.33 L 26.461 25.227 L 26.538 25.123 L 26.613 25.019 L 26.688 24.913 L 26.761 24.808 L 26.833 24.701 L 26.903 24.594 L 26.973 24.487 L 27.042 24.378 L 27.109 24.269 L 27.176 24.16 L 27.241 24.05 L 27.305 23.939 L 27.367 23.828 L 27.429 23.716 L 27.489 23.604 L 27.549 23.491 L 27.607 23.377 L 27.663 23.264 L 27.719 23.149 L 27.774 23.035 L 27.827 22.919 L 27.879 22.804 L 27.93 22.688 L 27.979 22.571 L 28.028 22.454 L 28.075 22.336 L 28.12 22.219 L 28.165 22.101 L 28.208 21.982 L 28.251 21.863 L 28.292 21.744 L 28.331 21.624 L 28.37 21.505 L 28.407 21.384 L 28.443 21.264 L 28.477 21.143 L 28.511 21.022 L 28.543 20.901 L 28.574 20.78 L 28.604 20.658 L 28.632 20.536 L 28.659 20.414 L 28.685 20.291 L 28.709 20.169 L 28.733 20.046 L 28.755 19.924 L 28.775 19.801 L 28.795 19.678 L 28.813 19.554 L 28.83 19.431 L 28.845 19.308 L 28.86 19.184 L 28.873 19.061 L 28.885 18.937 L 28.895 18.814 L 28.904 18.69 L 28.912 18.566 L 28.919 18.443 L 28.925 18.319 L 28.929 18.195 L 28.932 18.072 L 28.933 17.948 L 28.934 17.825 L 28.933 17.701 L 28.931 17.578 L 28.927 17.455 L 28.923 17.332 L 28.917 17.209 L 28.909 17.086 L 28.901 16.963 L 28.891 16.841 L 28.88 16.718 L 28.868 16.596 L 28.855 16.474 L 28.84 16.353 L 28.824 16.231 L 28.807 16.11 L 28.788 15.989 L 28.769 15.868 L 28.748 15.748 L 28.726 15.627 L 28.703 15.507 L 28.678 15.388 L 28.652 15.268 L 28.626 15.149 L 28.597 15.03 L 28.568 14.912 L 28.538 14.794 L 28.506 14.677 L 28.473 14.56 L 28.439 14.443 L 28.404 14.326 L 28.367 14.211 L 28.33 14.095 L 28.291 13.98 L 28.251 13.865 L 28.21 13.751 L 28.168 13.637 L 28.124 13.524 L 28.08 13.411 L 28.034 13.299 L 27.988 13.188 L 27.94 13.076 L 27.891 12.966 L 27.841 12.856 L 27.79 12.746 L 27.738 12.637 L 27.684 12.529 L 27.63 12.421 L 27.574 12.314 L 27.518 12.207 L 27.46 12.101 L 27.402 11.996 L 27.342 11.892 L 27.281 11.788 L 27.22 11.684 L 27.157 11.582 L 27.093 11.48 L 27.028 11.378 L 26.963 11.278 L 26.896 11.178 L 26.828 11.079 L 26.759 10.98 L 26.69 10.883 L 26.619 10.786 L 26.548 10.69 L 26.475 10.594 L 26.402 10.5 L 26.327 10.406 L 26.252 10.313 L 26.176 10.22 L 26.099 10.129 L 26.021 10.038 L 25.942 9.948 L 25.862 9.859 L 25.782 9.771 L 25.7 9.684 L 25.618 9.598 L 25.535 9.512 L 25.451 9.427 L 25.366 9.343 L 25.281 9.26 L 25.194 9.178 L 25.108 9.097 L 25.02 9.017 L 24.931 8.938 L 24.842 8.859 L 24.752 8.782 L 24.66 8.705 L 24.569 8.629 L 24.477 8.555 L 24.384 8.481 L 24.29 8.408 L 24.196 8.337 L 24.1 8.266 L 24.005 8.196 L 23.908 8.127 L 23.811 8.059 L 23.714 7.992 L 23.615 7.926 L 23.516 7.862 L 23.417 7.798 L 23.317 7.735 L 23.216 7.673 L 23.115 7.612 L 23.013 7.553 L 22.911 7.494 L 22.808 7.436 L 22.705 7.38 L 22.601 7.324 L 22.496 7.27 L 22.391 7.216 L 22.286 7.164 L 22.18 7.113 L 22.074 7.063 L 21.967 7.013 L 21.86 6.965 L 21.752 6.918 L 21.641 6.871 L 21.536 6.828 L 21.427 6.784 L 21.318 6.741 L 21.209 6.7 L 21.099 6.659 L 20.989 6.62 L 20.878 6.582 L 20.767 6.545 L 20.656 6.509 L 20.545 6.474 L 20.433 6.44 L 20.321 6.408 L 20.209 6.376 L 20.096 6.346 L 19.983 6.316 L 19.871 6.288 L 19.757 6.261 L 19.644 6.235 L 19.53 6.21 L 19.417 6.187 L 19.302 6.164 L 19.189 6.143 L 19.074 6.123 L 18.96 6.104 L 18.845 6.086 L 18.731 6.069 L 18.616 6.053 L 18.502 6.039 L 18.387 6.025 L 18.272 6.013 L 18.157 6.002 L 18.042 5.992 L 17.927 5.983 L 17.812 5.975 L 17.697 5.968 L 17.582 5.963 L 17.467 5.959 L 17.352 5.955 L 17.238 5.953 L 17.123 5.952 L 17.008 5.953 L 16.985 5.953 L 17.021 9.011 L 17.086 9.01 L 17.17 9.011 L 17.254 9.012 L 17.338 9.014 L 17.422 9.017 L 17.506 9.021 L 17.59 9.026 L 17.674 9.031 L 17.759 9.037 L 17.843 9.044 L 17.927 9.052 L 18.011 9.061 L 18.095 9.071 L 18.179 9.081 L 18.263 9.093 L 18.347 9.105 L 18.431 9.118 L 18.515 9.132 L 18.599 9.146 L 18.682 9.162 L 18.766 9.178 L 18.85 9.196 L 18.933 9.214 L 19.016 9.232 L 19.099 9.252 L 19.182 9.273 L 19.265 9.294 L 19.348 9.316 L 19.431 9.339 L 19.513 9.363 L 19.595 9.388 L 19.677 9.414 L 19.759 9.44 L 19.841 9.467 L 19.922 9.495 L 20.003 9.524 L 20.084 9.554 L 20.165 9.584 L 20.245 9.616 L 20.325 9.648 L 20.405 9.681 L 20.485 9.715 L 20.564 9.749 L 20.643 9.785 L 20.722 9.821 L 20.8 9.858 L 20.879 9.896 L 20.956 9.934 L 21.034 9.974 L 21.111 10.014 L 21.188 10.055 L 21.264 10.097 L 21.34 10.139 L 21.416 10.183 L 21.491 10.227 L 21.566 10.272 L 21.64 10.318 L 21.714 10.364 L 21.788 10.411 L 21.861 10.459 L 21.934 10.508 L 22.006 10.558 L 22.078 10.608 L 22.149 10.659 L 22.22 10.711 L 22.29 10.763 L 22.36 10.816 L 22.43 10.87 L 22.499 10.925 L 22.567 10.98 L 22.635 11.037 L 22.702 11.093 L 22.769 11.151 L 22.836 11.209 L 22.901 11.268 L 22.967 11.328 L 23.031 11.388 L 23.095 11.449 L 23.159 11.511 L 23.222 11.573 L 23.284 11.636 L 23.346 11.7 L 23.407 11.764 L 23.467 11.829 L 23.527 11.895 L 23.586 11.961 L 23.645 12.028 L 23.703 12.096 L 23.76 12.164 L 23.817 12.233 L 23.872 12.302 L 23.928 12.372 L 23.982 12.443 L 24.036 12.514 L 24.089 12.586 L 24.142 12.658 L 24.194 12.731 L 24.245 12.805 L 24.295 12.879 L 24.345 12.954 L 24.394 13.029 L 24.442 13.104 L 24.489 13.181 L 24.536 13.257 L 24.582 13.335 L 24.627 13.412 L 24.671 13.491 L 24.715 13.57 L 24.758 13.649 L 24.8 13.729 L 24.841 13.809 L 24.882 13.89 L 24.921 13.971 L 24.96 14.052 L 24.998 14.134 L 25.035 14.217 L 25.072 14.3 L 25.107 14.383 L 25.142 14.467 L 25.176 14.551 L 25.209 14.636 L 25.241 14.72 L 25.273 14.806 L 25.303 14.892 L 25.333 14.978 L 25.362 15.064 L 25.389 15.151 L 25.416 15.238 L 25.443 15.325 L 25.468 15.413 L 25.492 15.501 L 25.516 15.59 L 25.538 15.678 L 25.56 15.767 L 25.581 15.856 L 25.601 15.946 L 25.62 16.036 L 25.638 16.126 L 25.655 16.216 L 25.671 16.306 L 25.686 16.397 L 25.701 16.488 L 25.714 16.579 L 25.727 16.67 L 25.738 16.762 L 25.749 16.854 L 25.759 16.946 L 25.768 17.038 L 25.776 17.13 L 25.782 17.222 L 25.788 17.315 L 25.793 17.407 L 25.798 17.5 L 25.801 17.593 L 25.803 17.686 L 25.804 17.779 L 25.804 17.872 L 25.804 17.965 L 25.802 18.058 L 25.799 18.152 L 25.796 18.245 L 25.791 18.338 L 25.786 18.432 L 25.779 18.525 L 25.772 18.618 L 25.763 18.712 L 25.754 18.805 L 25.743 18.898 L 25.732 18.992 L 25.72 19.085 L 25.706 19.178 L 25.692 19.271 L 25.677 19.364 L 25.661 19.457 L 25.644 19.55 L 25.626 19.643 L 25.606 19.736 L 25.586 19.828 L 25.565 19.92 L 25.543 20.013 L 25.52 20.105 L 25.497 20.197 L 25.472 20.289 L 25.446 20.38 L 25.419 20.472 L 25.391 20.563 L 25.363 20.654 L 25.333 20.745 L 25.302 20.835 L 25.271 20.925 L 25.238 21.015 L 25.205 21.105 L 25.17 21.195 L 25.135 21.284 L 25.098 21.373 L 25.061 21.462 L 25.023 21.55 L 24.984 21.638 L 24.944 21.726 L 24.903 21.813 L 24.861 21.9 L 24.818 21.987 L 24.774 22.073 L 24.729 22.159 L 24.684 22.245 L 24.637 22.33 L 24.59 22.415 L 24.541 22.499 L 24.492 22.583 L 24.442 22.667 L 24.391 22.75 L 24.339 22.832 L 24.286 22.915 L 24.232 22.996 L 24.178 23.078 L 24.122 23.158 L 24.066 23.239 L 24.009 23.318 L 23.951 23.398 L 23.892 23.477 L 23.832 23.555 L 23.771 23.632 L 23.71 23.71 L 23.648 23.786 L 23.585 23.862 L 23.521 23.938 L 23.456 24.013 L 23.39 24.087 L 23.324 24.161 L 23.257 24.234 L 23.189 24.306 L 23.12 24.378 L 23.05 24.449 L 22.98 24.52 L 22.909 24.59 L 22.837 24.659 L 22.764 24.728 L 22.691 24.796 L 22.617 24.863 L 22.542 24.93 L 22.466 24.996 L 22.39 25.061 L 22.313 25.125 L 22.235 25.189 L 22.156 25.252 L 22.077 25.315 L 21.997 25.376 L 21.917 25.437 L 21.835 25.497 L 21.753 25.557 L 21.671 25.615 L 21.588 25.673 L 21.504 25.73 L 21.419 25.786 L 21.334 25.842 L 21.248 25.896 L 21.162 25.95 L 21.074 26.003 L 20.987 26.055 L 20.898 26.107 L 20.81 26.157 L 20.72 26.207 L 20.63 26.256 L 20.54 26.304 L 20.449 26.351 L 20.357 26.397 L 20.265 26.442 L 20.172 26.487 L 20.079 26.531 L 19.985 26.573 L 19.891 26.615 L 19.796 26.656 L 19.701 26.696 L 19.605 26.735 L 19.509 26.774 L 19.412 26.811 L 19.315 26.847 L 19.218 26.883 L 19.12 26.917 L 19.021 26.951 L 18.923 26.983 L 18.823 27.015 L 18.724 27.046 L 18.624 27.075 L 18.524 27.104 L 18.423 27.132 L 18.322 27.159 L 18.221 27.185 L 18.119 27.209 L 18.017 27.233 L 17.915 27.256 L 17.812 27.278 L 17.709 27.299 L 17.606 27.319 L 17.502 27.338 L 17.399 27.356 L 17.295 27.373 L 17.19 27.389 L 17.086 27.403 L 16.981 27.417 L 16.876 27.43 L 16.771 27.442 L 16.666 27.453 L 16.561 27.462 L 16.455 27.471 L 16.349 27.479 L 16.243 27.486 L 16.137 27.491 L 16.031 27.496 L 15.925 27.499 L 15.818 27.502 L 15.712 27.503 L 15.605 27.504 L 15.499 27.503 L 15.392 27.501 L 15.285 27.498 L 15.178 27.495 L 15.072 27.49 L 14.965 27.484 L 14.858 27.477 L 14.751 27.469 L 14.644 27.46 L 14.537 27.45 L 14.431 27.438 L 14.324 27.426 L 14.217 27.413 L 14.111 27.398 L 14.004 27.383 L 13.898 27.366 L 13.791 27.349 L 13.685 27.33 L 13.579 27.311 L 13.473 27.29 L 13.367 27.268 L 13.262 27.245 L 13.156 27.222 L 13.051 27.197 L 12.946 27.171 L 12.841 27.144 L 12.736 27.115 L 12.632 27.086 L 12.528 27.056 L 12.424 27.025 L 12.32 26.993 L 12.216 26.959 L 12.113 26.925 L 12.01 26.89 L 11.908 26.853 L 11.806 26.816 L 11.704 26.777 L 11.602 26.738 L 11.501 26.697 L 11.4 26.656 L 11.299 26.613 L 11.199 26.57 L 11.099 26.525 L 11 26.479 L 10.901 26.433 L 10.802 26.385 L 10.704 26.337 L 10.606 26.287 L 10.509 26.236 L 10.412 26.185 L 10.316 26.132 L 10.22 26.079 L 10.125 26.024 L 10.03 25.969 L 9.936 25.912 L 9.842 25.855 L 9.749 25.797 L 9.656 25.737 L 9.564 25.677 L 9.472 25.616 L 9.381 25.554 L 9.291 25.49 L 9.201 25.426 L 9.111 25.362 L 9.023 25.296 L 8.935 25.229 L 8.847 25.161 L 8.761 25.093 L 8.675 25.023 L 8.589 24.953 L 8.504 24.882 L 8.42 24.809 L 8.337 24.736 L 8.254 24.663 L 8.172 24.588 L 8.091 24.512 L 8.01 24.436 L 7.931 24.359 L 7.852 24.281 L 7.773 24.202 L 7.696 24.122 L 7.619 24.041 L 7.543 23.96 L 7.468 23.878 L 7.393 23.795 L 7.32 23.711 L 7.247 23.627 L 7.175 23.542 L 7.104 23.456 L 7.034 23.369 L 6.964 23.281 L 6.896 23.193 L 6.828 23.104 L 6.761 23.015 L 6.695 22.924 L 6.63 22.833 L 6.566 22.741 L 6.503 22.649 L 6.441 22.556 L 6.379 22.462 L 6.319 22.368 L 6.259 22.272 L 6.201 22.177 L 6.143 22.08 L 6.086 21.983 L 6.031 21.886 L 5.976 21.787 L 5.922 21.689 L 5.869 21.589 L 5.817 21.489 L 5.767 21.389 L 5.717 21.288 L 5.668 21.186 L 5.62 21.084 L 5.574 20.981 L 5.528 20.878 L 5.483 20.774 L 5.439 20.67 L 5.397 20.565 L 5.355 20.46 L 5.315 20.354 L 5.275 20.248 L 5.237 20.141 L 5.2 20.034 L 5.164 19.927 L 5.128 19.819 L 5.094 19.71 L 5.061 19.602 L 5.03 19.493 L 4.999 19.383 L 4.969 19.273 L 4.941 19.163 L 4.913 19.053 L 4.887 18.942 L 4.862 18.831 L 4.838 18.719 L 4.815 18.607 L 4.793 18.495 L 4.772 18.383 L 4.753 18.27 L 4.735 18.157 L 4.717 18.044 L 4.701 17.931 L 4.686 17.817 L 4.673 17.703 L 4.66 17.589 L 4.649 17.475 L 4.639 17.361 L 4.63 17.246 L 4.622 17.132 L 4.615 17.017 L 4.609 16.902 L 4.605 16.787 L 4.602 16.672 L 4.6 16.556 L 4.599 16.441 L 4.599 16.325 L 4.601 16.21 L 4.604 16.094 L 4.608 15.979 L 4.613 15.863 L 4.619 15.747 L 4.627 15.632 L 4.635 15.516 L 4.645 15.4 L 4.656 15.285 L 4.669 15.169 L 4.682 15.054 L 4.697 14.938 L 4.713 14.823 L 4.73 14.708 L 4.748 14.593 L 4.767 14.478 L 4.788 14.363 L 4.81 14.248 L 4.833 14.133 L 4.857 14.019 L 4.882 13.905 L 4.909 13.791 L 4.937 13.677 L 4.966 13.563 L 4.996 13.45 L 5.027 13.336 L 5.06 13.223 L 5.093 13.111 L 5.128 12.998 L 5.164 12.886 L 5.202 12.774 L 5.24 12.662 L 5.28 12.551 L 5.32 12.44 L 5.362 12.33 L 5.405 12.219 L 5.449 12.109 L 5.495 12 L 5.541 11.891 L 5.589 11.782 L 5.638 11.674 L 5.688 11.566 L 5.739 11.458 L 5.791 11.351 L 5.844 11.245 L 5.899 11.138 L 5.954 11.033 L 6.011 10.928 L 6.069 10.823 L 6.128 10.719 L 6.188 10.615 L 6.249 10.512 L 6.311 10.41 L 6.374 10.308 L 6.439 10.206 L 6.504 10.105 L 6.571 10.005 L 6.638 9.905 L 6.707 9.806 L 6.777 9.708 L 6.847 9.61 L 6.919 9.513 L 6.992 9.416 L 7.066 9.32 L 7.141 9.225 L 7.217 9.131 L 7.294 9.037 L 7.371 8.944 L 7.45 8.851 L 7.53 8.76 L 7.611 8.669 L 7.693 8.579 L 7.776 8.489 L 7.86 8.401 L 7.945 8.313 L 8.03 8.226 L 8.117 8.139 L 8.204 8.054 L 8.293 7.969 L 8.382 7.885 L 8.473 7.802 L 8.564 7.72 L 8.656 7.639 L 8.749 7.558 L 8.843 7.479 L 8.938 7.4 L 9.034 7.322 L 9.13 7.245 L 9.227 7.169 L 9.326 7.094 L 9.424 7.02 L 9.524 6.947 L 9.625 6.874 L 9.726 6.803 L 9.828 6.733 L 9.931 6.663 L 10.035 6.595 L 10.14 6.527 L 10.245 6.461 L 10.351 6.395 L 10.458 6.331 L 10.565 6.267 L 10.673 6.205 L 10.782 6.143 L 10.892 6.083 L 11.002 6.024 L 11.113 5.965 L 11.224 5.908 L 11.336 5.852 L 11.449 5.797 L 11.562 5.743 L 11.677 5.69 L 11.791 5.638 L 11.906 5.587 L 12.022 5.538 L 12.139 5.489 L 12.256 5.442 L 12.373 5.396 L 12.491 5.35 L 12.61 5.306 L 12.729 5.263 L 12.848 5.222 L 12.969 5.181 L 13.089 5.142 L 13.21 5.104 L 13.332 5.066 L 13.454 5.031 L 13.576 4.996 L 13.699 4.962 L 13.822 4.93 L 13.945 4.899 L 14.069 4.869 L 14.194 4.84 L 14.318 4.812 L 14.444 4.786 L 14.569 4.761 L 14.695 4.737 L 14.821 4.714 L 14.947 4.693 L 15.074 4.673 L 15.2 4.654 L 15.328 4.636 L 15.455 4.619 L 15.502 4.614 Z M 15.556 9.149 L 15.52 6.058 L 15.415 6.072 L 15.303 6.089 L 15.191 6.107 L 15.079 6.126 L 14.967 6.146 L 14.856 6.167 L 14.745 6.189 L 14.635 6.213 L 14.524 6.237 L 14.414 6.263 L 14.304 6.289 L 14.195 6.317 L 14.086 6.345 L 13.981 6.374 L 13.869 6.406 L 13.761 6.437 L 13.654 6.47 L 13.547 6.504 L 13.44 6.539 L 13.334 6.575 L 13.228 6.612 L 13.123 6.65 L 13.018 6.688 L 12.914 6.728 L 12.81 6.769 L 12.707 6.811 L 12.604 6.854 L 12.502 6.898 L 12.4 6.943 L 12.299 6.988 L 12.198 7.035 L 12.097 7.083 L 11.998 7.132 L 11.899 7.181 L 11.8 7.232 L 11.702 7.283 L 11.605 7.336 L 11.508 7.389 L 11.412 7.443 L 11.317 7.498 L 11.222 7.554 L 11.128 7.611 L 11.034 7.669 L 10.942 7.728 L 10.849 7.787 L 10.758 7.848 L 10.667 7.909 L 10.577 7.971 L 10.487 8.034 L 10.399 8.098 L 10.311 8.162 L 10.223 8.228 L 10.137 8.294 L 10.051 8.361 L 9.966 8.429 L 9.881 8.498 L 9.798 8.567 L 9.715 8.637 L 9.633 8.708 L 9.552 8.78 L 9.471 8.852 L 9.392 8.925 L 9.313 8.999 L 9.235 9.074 L 9.158 9.149 L 9.082 9.225 L 9.006 9.302 L 8.931 9.379 L 8.858 9.458 L 8.785 9.536 L 8.712 9.616 L 8.641 9.696 L 8.571 9.776 L 8.501 9.858 L 8.433 9.94 L 8.365 10.022 L 8.298 10.105 L 8.232 10.189 L 8.167 10.274 L 8.103 10.358 L 8.04 10.444 L 7.978 10.53 L 7.916 10.617 L 7.856 10.704 L 7.797 10.791 L 7.738 10.88 L 7.68 10.968 L 7.624 11.058 L 7.568 11.147 L 7.514 11.238 L 7.46 11.328 L 7.407 11.419 L 7.355 11.511 L 7.305 11.603 L 7.255 11.695 L 7.206 11.788 L 7.158 11.881 L 7.111 11.975 L 7.065 12.069 L 7.02 12.163 L 6.977 12.258 L 6.934 12.353 L 6.892 12.449 L 6.851 12.545 L 6.811 12.641 L 6.772 12.737 L 6.735 12.834 L 6.698 12.931 L 6.662 13.029 L 6.627 13.126 L 6.594 13.224 L 6.561 13.323 L 6.529 13.421 L 6.499 13.52 L 6.469 13.619 L 6.441 13.718 L 6.413 13.817 L 6.387 13.917 L 6.361 14.016 L 6.337 14.116 L 6.314 14.216 L 6.291 14.316 L 6.27 14.417 L 6.25 14.517 L 6.231 14.618 L 6.213 14.719 L 6.196 14.82 L 6.18 14.92 L 6.165 15.021 L 6.151 15.122 L 6.138 15.224 L 6.126 15.325 L 6.115 15.426 L 6.106 15.527 L 6.097 15.629 L 6.089 15.73 L 6.083 15.831 L 6.077 15.932 L 6.073 16.034 L 6.069 16.135 L 6.067 16.236 L 6.066 16.337 L 6.065 16.438 L 6.066 16.539 L 6.068 16.64 L 6.071 16.741 L 6.074 16.841 L 6.079 16.942 L 6.085 17.043 L 6.092 17.143 L 6.1 17.243 L 6.109 17.343 L 6.119 17.443 L 6.13 17.543 L 6.142 17.642 L 6.155 17.741 L 6.169 17.84 L 6.184 17.939 L 6.2 18.038 L 6.217 18.136 L 6.235 18.235 L 6.254 18.333 L 6.274 18.43 L 6.295 18.528 L 6.317 18.625 L 6.34 18.722 L 6.364 18.818 L 6.389 18.914 L 6.415 19.01 L 6.441 19.106 L 6.469 19.201 L 6.498 19.296 L 6.528 19.391 L 6.558 19.485 L 6.59 19.579 L 6.623 19.672 L 6.656 19.765 L 6.69 19.858 L 6.726 19.95 L 6.762 20.042 L 6.799 20.133 L 6.837 20.224 L 6.876 20.314 L 6.916 20.404 L 6.957 20.494 L 6.998 20.583 L 7.041 20.672 L 7.084 20.76 L 7.129 20.847 L 7.174 20.935 L 7.22 21.021 L 7.267 21.107 L 7.314 21.193 L 7.363 21.278 L 7.412 21.362 L 7.463 21.446 L 7.514 21.53 L 7.565 21.613 L 7.618 21.695 L 7.672 21.777 L 7.726 21.858 L 7.781 21.938 L 7.837 22.018 L 7.893 22.097 L 7.951 22.176 L 8.009 22.254 L 8.068 22.331 L 8.127 22.408 L 8.188 22.484 L 8.249 22.56 L 8.311 22.634 L 8.373 22.709 L 8.436 22.782 L 8.5 22.855 L 8.565 22.927 L 8.63 22.998 L 8.696 23.069 L 8.763 23.139 L 8.831 23.208 L 8.899 23.277 L 8.967 23.345 L 9.037 23.412 L 9.107 23.478 L 9.177 23.544 L 9.248 23.609 L 9.32 23.673 L 9.393 23.736 L 9.466 23.799 L 9.539 23.861 L 9.613 23.922 L 9.688 23.982 L 9.763 24.041 L 9.839 24.1 L 9.916 24.158 L 9.993 24.215 L 10.07 24.272 L 10.148 24.327 L 10.226 24.382 L 10.305 24.436 L 10.385 24.489 L 10.465 24.541 L 10.545 24.593 L 10.626 24.643 L 10.707 24.693 L 10.789 24.742 L 10.871 24.79 L 10.954 24.837 L 11.037 24.884 L 11.12 24.929 L 11.204 24.974 L 11.288 25.018 L 11.373 25.061 L 11.458 25.103 L 11.544 25.144 L 11.629 25.184 L 11.715 25.224 L 11.802 25.262 L 11.888 25.3 L 11.975 25.337 L 12.063 25.373 L 12.15 25.408 L 12.238 25.442 L 12.326 25.475 L 12.415 25.508 L 12.504 25.539 L 12.593 25.57 L 12.682 25.6 L 12.771 25.628 L 12.861 25.656 L 12.951 25.683 L 13.041 25.709 L 13.131 25.734 L 13.222 25.759 L 13.312 25.782 L 13.403 25.805 L 13.494 25.826 L 13.585 25.847 L 13.677 25.866 L 13.768 25.885 L 13.859 25.903 L 13.951 25.92 L 14.043 25.936 L 14.134 25.951 L 14.226 25.966 L 14.318 25.979 L 14.41 25.991 L 14.502 26.003 L 14.594 26.013 L 14.686 26.023 L 14.779 26.032 L 14.871 26.04 L 14.963 26.046 L 15.055 26.053 L 15.147 26.058 L 15.239 26.062 L 15.331 26.065 L 15.423 26.068 L 15.515 26.069 L 15.607 26.07 L 15.699 26.069 L 15.791 26.068 L 15.882 26.066 L 15.974 26.063 L 16.066 26.059 L 16.157 26.054 L 16.248 26.048 L 16.339 26.042 L 16.43 26.034 L 16.521 26.026 L 16.611 26.016 L 16.702 26.006 L 16.792 25.995 L 16.882 25.983 L 16.972 25.971 L 17.062 25.957 L 17.151 25.942 L 17.24 25.927 L 17.329 25.911 L 17.418 25.894 L 17.506 25.876 L 17.595 25.857 L 17.683 25.837 L 17.77 25.817 L 17.858 25.795 L 17.945 25.773 L 18.032 25.75 L 18.118 25.726 L 18.204 25.701 L 18.29 25.676 L 18.376 25.65 L 18.461 25.622 L 18.546 25.594 L 18.63 25.566 L 18.714 25.536 L 18.798 25.506 L 18.881 25.474 L 18.964 25.442 L 19.046 25.41 L 19.128 25.376 L 19.21 25.342 L 19.291 25.306 L 19.372 25.271 L 19.453 25.234 L 19.533 25.197 L 19.612 25.158 L 19.691 25.12 L 19.77 25.08 L 19.848 25.04 L 19.925 24.998 L 20.002 24.957 L 20.079 24.914 L 20.155 24.871 L 20.231 24.827 L 20.306 24.782 L 20.38 24.737 L 20.454 24.691 L 20.528 24.644 L 20.601 24.596 L 20.673 24.548 L 20.745 24.499 L 20.816 24.45 L 20.887 24.4 L 20.957 24.349 L 21.026 24.298 L 21.095 24.246 L 21.164 24.193 L 21.231 24.14 L 21.299 24.086 L 21.365 24.031 L 21.431 23.976 L 21.496 23.92 L 21.561 23.864 L 21.625 23.807 L 21.688 23.75 L 21.751 23.692 L 21.813 23.633 L 21.874 23.574 L 21.935 23.514 L 21.995 23.454 L 22.054 23.393 L 22.113 23.332 L 22.171 23.27 L 22.228 23.207 L 22.285 23.144 L 22.341 23.081 L 22.396 23.017 L 22.451 22.953 L 22.505 22.888 L 22.558 22.823 L 22.61 22.757 L 22.662 22.691 L 22.713 22.624 L 22.763 22.557 L 22.812 22.489 L 22.861 22.422 L 22.909 22.353 L 22.956 22.284 L 23.003 22.215 L 23.049 22.145 L 23.094 22.076 L 23.138 22.005 L 23.181 21.934 L 23.224 21.863 L 23.266 21.792 L 23.307 21.72 L 23.347 21.648 L 23.387 21.575 L 23.426 21.503 L 23.464 21.43 L 23.501 21.356 L 23.537 21.283 L 23.573 21.208 L 23.608 21.134 L 23.642 21.06 L 23.675 20.985 L 23.708 20.91 L 23.74 20.834 L 23.77 20.759 L 23.8 20.683 L 23.83 20.607 L 23.858 20.531 L 23.886 20.454 L 23.912 20.378 L 23.938 20.301 L 23.964 20.224 L 23.988 20.147 L 24.012 20.069 L 24.034 19.992 L 24.056 19.914 L 24.077 19.836 L 24.098 19.758 L 24.117 19.68 L 24.136 19.602 L 24.154 19.524 L 24.171 19.445 L 24.187 19.367 L 24.202 19.288 L 24.217 19.21 L 24.23 19.131 L 24.243 19.052 L 24.255 18.973 L 24.266 18.894 L 24.277 18.815 L 24.286 18.736 L 24.295 18.657 L 24.303 18.579 L 24.31 18.499 L 24.317 18.42 L 24.322 18.342 L 24.327 18.262 L 24.331 18.184 L 24.334 18.105 L 24.336 18.026 L 24.337 17.947 L 24.338 17.868 L 24.338 17.79 L 24.337 17.711 L 24.335 17.633 L 24.332 17.554 L 24.329 17.476 L 24.325 17.398 L 24.32 17.32 L 24.314 17.242 L 24.307 17.164 L 24.3 17.086 L 24.292 17.009 L 24.282 16.931 L 24.273 16.854 L 24.262 16.777 L 24.251 16.7 L 24.239 16.624 L 24.226 16.547 L 24.212 16.471 L 24.198 16.395 L 24.182 16.319 L 24.166 16.243 L 24.15 16.168 L 24.132 16.093 L 24.114 16.018 L 24.095 15.943 L 24.075 15.869 L 24.054 15.795 L 24.033 15.721 L 24.011 15.647 L 23.988 15.574 L 23.965 15.501 L 23.941 15.428 L 23.916 15.356 L 23.89 15.284 L 23.864 15.212 L 23.837 15.141 L 23.809 15.07 L 23.781 14.999 L 23.751 14.929 L 23.722 14.859 L 23.691 14.789 L 23.66 14.72 L 23.628 14.651 L 23.595 14.582 L 23.562 14.514 L 23.528 14.447 L 23.493 14.379 L 23.458 14.312 L 23.422 14.246 L 23.385 14.18 L 23.348 14.114 L 23.31 14.049 L 23.272 13.984 L 23.233 13.92 L 23.193 13.856 L 23.153 13.792 L 23.112 13.729 L 23.07 13.667 L 23.028 13.605 L 22.985 13.543 L 22.942 13.482 L 22.898 13.422 L 22.853 13.361 L 22.808 13.302 L 22.762 13.243 L 22.716 13.184 L 22.67 13.126 L 22.622 13.069 L 22.574 13.012 L 22.526 12.955 L 22.477 12.899 L 22.427 12.844 L 22.377 12.789 L 22.327 12.734 L 22.276 12.681 L 22.224 12.628 L 22.172 12.575 L 22.12 12.523 L 22.067 12.471 L 22.013 12.42 L 21.96 12.37 L 21.905 12.32 L 21.85 12.271 L 21.795 12.222 L 21.739 12.174 L 21.683 12.127 L 21.626 12.08 L 21.569 12.034 L 21.512 11.988 L 21.454 11.943 L 21.396 11.899 L 21.337 11.855 L 21.278 11.812 L 21.218 11.77 L 21.159 11.728 L 21.098 11.687 L 21.038 11.646 L 20.977 11.606 L 20.916 11.567 L 20.854 11.528 L 20.792 11.49 L 20.73 11.453 L 20.668 11.416 L 20.605 11.38 L 20.542 11.345 L 20.478 11.31 L 20.414 11.276 L 20.35 11.242 L 20.286 11.21 L 20.221 11.178 L 20.156 11.146 L 20.091 11.115 L 20.026 11.085 L 19.96 11.056 L 19.895 11.027 L 19.828 10.999 L 19.762 10.972 L 19.696 10.945 L 19.629 10.919 L 19.562 10.894 L 19.495 10.869 L 19.428 10.845 L 19.36 10.822 L 19.293 10.8 L 19.225 10.778 L 19.157 10.757 L 19.089 10.736 L 19.021 10.716 L 18.952 10.697 L 18.884 10.679 L 18.815 10.661 L 18.747 10.644 L 18.678 10.628 L 18.609 10.612 L 18.54 10.597 L 18.471 10.583 L 18.402 10.569 L 18.333 10.557 L 18.264 10.545 L 18.194 10.533 L 18.125 10.522 L 18.056 10.512 L 17.986 10.503 L 17.917 10.494 L 17.847 10.486 L 17.778 10.479 L 17.709 10.472 L 17.639 10.467 L 17.57 10.461 L 17.5 10.457 L 17.431 10.453 L 17.362 10.45 L 17.292 10.447 L 17.223 10.446 L 17.154 10.445 L 17.085 10.444 L 17.038 10.444 L 17.074 13.465 L 17.095 13.465 L 17.135 13.465 L 17.174 13.466 L 17.214 13.468 L 17.254 13.469 L 17.294 13.472 L 17.334 13.474 L 17.374 13.477 L 17.414 13.481 L 17.454 13.484 L 17.494 13.489 L 17.534 13.493 L 17.574 13.498 L 17.614 13.504 L 17.655 13.51 L 17.695 13.516 L 17.735 13.523 L 17.775 13.53 L 17.815 13.538 L 17.855 13.546 L 17.895 13.555 L 17.935 13.563 L 17.976 13.573 L 18.015 13.583 L 18.055 13.593 L 18.095 13.603 L 18.135 13.614 L 18.175 13.626 L 18.215 13.638 L 18.254 13.65 L 18.294 13.663 L 18.334 13.676 L 18.373 13.69 L 18.413 13.704 L 18.452 13.718 L 18.491 13.733 L 18.53 13.748 L 18.569 13.764 L 18.608 13.78 L 18.647 13.797 L 18.686 13.814 L 18.724 13.831 L 18.763 13.849 L 18.801 13.867 L 18.839 13.886 L 18.877 13.905 L 18.915 13.925 L 18.953 13.945 L 18.99 13.965 L 19.028 13.986 L 19.065 14.007 L 19.102 14.029 L 19.139 14.051 L 19.176 14.073 L 19.212 14.096 L 19.249 14.119 L 19.285 14.143 L 19.321 14.167 L 19.357 14.192 L 19.392 14.216 L 19.428 14.242 L 19.463 14.267 L 19.498 14.294 L 19.533 14.32 L 19.567 14.347 L 19.602 14.374 L 19.636 14.402 L 19.669 14.43 L 19.703 14.458 L 19.736 14.487 L 19.769 14.516 L 19.802 14.546 L 19.834 14.576 L 19.867 14.606 L 19.899 14.637 L 19.93 14.668 L 19.962 14.7 L 19.993 14.731 L 20.024 14.764 L 20.054 14.796 L 20.084 14.829 L 20.114 14.862 L 20.144 14.896 L 20.173 14.93 L 20.202 14.964 L 20.231 14.999 L 20.259 15.034 L 20.287 15.069 L 20.315 15.105 L 20.342 15.141 L 20.369 15.177 L 20.396 15.214 L 20.422 15.251 L 20.448 15.288 L 20.474 15.326 L 20.499 15.364 L 20.524 15.402 L 20.549 15.441 L 20.573 15.48 L 20.596 15.519 L 20.62 15.559 L 20.643 15.598 L 20.665 15.638 L 20.688 15.679 L 20.709 15.719 L 20.731 15.76 L 20.752 15.802 L 20.772 15.843 L 20.793 15.885 L 20.812 15.927 L 20.832 15.969 L 20.851 16.012 L 20.869 16.054 L 20.887 16.098 L 20.905 16.141 L 20.922 16.184 L 20.939 16.228 L 20.955 16.272 L 20.971 16.316 L 20.987 16.361 L 21.002 16.405 L 21.016 16.45 L 21.03 16.495 L 21.044 16.541 L 21.057 16.586 L 21.07 16.632 L 21.082 16.678 L 21.094 16.724 L 21.105 16.77 L 21.116 16.817 L 21.127 16.863 L 21.137 16.91 L 21.146 16.957 L 21.155 17.004 L 21.163 17.052 L 21.171 17.099 L 21.179 17.146 L 21.186 17.194 L 21.192 17.242 L 21.198 17.29 L 21.204 17.338 L 21.209 17.386 L 21.213 17.435 L 21.217 17.483 L 21.221 17.532 L 21.224 17.581 L 21.226 17.629 L 21.228 17.678 L 21.23 17.727 L 21.231 17.776 L 21.231 17.825 L 21.231 17.874 L 21.23 17.924 L 21.229 17.973 L 21.228 18.022 L 21.226 18.072 L 21.223 18.121 L 21.22 18.171 L 21.216 18.22 L 21.212 18.27 L 21.207 18.32 L 21.201 18.369 L 21.196 18.419 L 21.189 18.468 L 21.182 18.518 L 21.175 18.568 L 21.167 18.617 L 21.158 18.667 L 21.149 18.717 L 21.14 18.766 L 21.13 18.816 L 21.119 18.865 L 21.108 18.915 L 21.096 18.964 L 21.084 19.013 L 21.071 19.063 L 21.058 19.112 L 21.044 19.161 L 21.029 19.21 L 21.014 19.259 L 20.999 19.308 L 20.983 19.357 L 20.966 19.406 L 20.949 19.454 L 20.932 19.503 L 20.913 19.551 L 20.895 19.6 L 20.876 19.648 L 20.856 19.696 L 20.836 19.744 L 20.815 19.792 L 20.793 19.839 L 20.772 19.887 L 20.749 19.934 L 20.726 19.981 L 20.703 20.028 L 20.679 20.075 L 20.654 20.122 L 20.629 20.168 L 20.604 20.214 L 20.578 20.26 L 20.551 20.306 L 20.524 20.352 L 20.497 20.397 L 20.468 20.442 L 20.44 20.487 L 20.411 20.532 L 20.381 20.577 L 20.351 20.621 L 20.32 20.665 L 20.289 20.709 L 20.258 20.752 L 20.225 20.796 L 20.193 20.839 L 20.16 20.881 L 20.126 20.924 L 20.092 20.966 L 20.057 21.008 L 20.022 21.049 L 19.987 21.091 L 19.951 21.132 L 19.914 21.172 L 19.877 21.213 L 19.84 21.253 L 19.802 21.292 L 19.764 21.332 L 19.725 21.371 L 19.686 21.409 L 19.646 21.448 L 19.606 21.486 L 19.565 21.523 L 19.524 21.561 L 19.482 21.598 L 19.441 21.634 L 19.398 21.67 L 19.355 21.706 L 19.312 21.742 L 19.268 21.777 L 19.224 21.811 L 19.18 21.845 L 19.135 21.879 L 19.09 21.913 L 19.044 21.946 L 18.998 21.978 L 18.951 22.01 L 18.904 22.042 L 18.857 22.074 L 18.809 22.104 L 18.761 22.135 L 18.713 22.165 L 18.664 22.194 L 18.615 22.223 L 18.565 22.252 L 18.515 22.28 L 18.465 22.308 L 18.414 22.335 L 18.364 22.362 L 18.312 22.388 L 18.261 22.414 L 18.209 22.439 L 18.156 22.464 L 18.104 22.488 L 18.051 22.512 L 17.998 22.536 L 17.944 22.558 L 17.89 22.581 L 17.836 22.602 L 17.782 22.624 L 17.727 22.645 L 17.672 22.665 L 17.616 22.685 L 17.561 22.704 L 17.505 22.722 L 17.449 22.741 L 17.393 22.758 L 17.336 22.775 L 17.279 22.792 L 17.222 22.808 L 17.165 22.823 L 17.107 22.838 L 17.05 22.852 L 16.992 22.866 L 16.934 22.879 L 16.875 22.892 L 16.817 22.904 L 16.758 22.915 L 16.699 22.926 L 16.64 22.936 L 16.58 22.946 L 16.521 22.955 L 16.461 22.964 L 16.401 22.972 L 16.341 22.979 L 16.281 22.986 L 16.221 22.992 L 16.161 22.998 L 16.1 23.003 L 16.04 23.007 L 15.979 23.011 L 15.918 23.014 L 15.857 23.017 L 15.796 23.019 L 15.735 23.02 L 15.674 23.021 L 15.612 23.021 L 15.551 23.021 L 15.49 23.02 L 15.428 23.018 L 15.366 23.016 L 15.305 23.013 L 15.243 23.01 L 15.182 23.006 L 15.12 23.001 L 15.058 22.995 L 14.996 22.989 L 14.935 22.983 L 14.873 22.976 L 14.811 22.968 L 14.75 22.959 L 14.688 22.95 L 14.626 22.94 L 14.565 22.93 L 14.503 22.919 L 14.441 22.908 L 14.38 22.895 L 14.318 22.883 L 14.257 22.869 L 14.196 22.855 L 14.135 22.84 L 14.073 22.825 L 14.012 22.809 L 13.952 22.792 L 13.891 22.775 L 13.83 22.757 L 13.769 22.739 L 13.709 22.72 L 13.649 22.7 L 13.588 22.68 L 13.528 22.659 L 13.468 22.637 L 13.409 22.615 L 13.349 22.592 L 13.29 22.569 L 13.23 22.545 L 13.171 22.52 L 13.113 22.495 L 13.054 22.469 L 12.996 22.442 L 12.937 22.415 L 12.879 22.387 L 12.822 22.359 L 12.764 22.33 L 12.707 22.301 L 12.65 22.27 L 12.593 22.24 L 12.536 22.208 L 12.48 22.176 L 12.424 22.144 L 12.368 22.111 L 12.313 22.077 L 12.258 22.043 L 12.203 22.008 L 12.148 21.972 L 12.094 21.936 L 12.04 21.9 L 11.987 21.862 L 11.933 21.825 L 11.88 21.786 L 11.828 21.747 L 11.776 21.708 L 11.724 21.668 L 11.672 21.627 L 11.621 21.586 L 11.57 21.545 L 11.52 21.502 L 11.47 21.46 L 11.42 21.416 L 11.371 21.372 L 11.322 21.328 L 11.274 21.283 L 11.226 21.238 L 11.178 21.192 L 11.131 21.145 L 11.085 21.098 L 11.038 21.05 L 10.992 21.002 L 10.947 20.954 L 10.902 20.905 L 10.858 20.855 L 10.814 20.805 L 10.77 20.755 L 10.727 20.704 L 10.685 20.652 L 10.643 20.6 L 10.601 20.548 L 10.56 20.495 L 10.52 20.442 L 10.48 20.388 L 10.44 20.334 L 10.401 20.279 L 10.363 20.224 L 10.325 20.168 L 10.288 20.112 L 10.251 20.056 L 10.214 19.999 L 10.179 19.941 L 10.144 19.884 L 10.109 19.826 L 10.075 19.767 L 10.042 19.708 L 10.009 19.649 L 9.976 19.589 L 9.945 19.529 L 9.914 19.469 L 9.883 19.408 L 9.853 19.347 L 9.824 19.285 L 9.795 19.223 L 9.767 19.161 L 9.74 19.098 L 9.713 19.035 L 9.686 18.972 L 9.661 18.909 L 9.636 18.845 L 9.612 18.781 L 9.588 18.716 L 9.565 18.651 L 9.542 18.586 L 9.521 18.521 L 9.5 18.455 L 9.479 18.389 L 9.46 18.323 L 9.44 18.257 L 9.422 18.19 L 9.404 18.123 L 9.387 18.056 L 9.371 17.988 L 9.355 17.921 L 9.34 17.853 L 9.326 17.785 L 9.312 17.716 L 9.299 17.648 L 9.287 17.579 L 9.276 17.51 L 9.265 17.441 L 9.255 17.372 L 9.245 17.303 L 9.236 17.233 L 9.228 17.163 L 9.221 17.093 L 9.215 17.023 L 9.209 16.953 L 9.204 16.883 L 9.199 16.813 L 9.196 16.742 L 9.193 16.672 L 9.19 16.601 L 9.189 16.53 L 9.188 16.459 L 9.188 16.388 L 9.189 16.317 L 9.19 16.246 L 9.193 16.175 L 9.196 16.104 L 9.199 16.033 L 9.204 15.962 L 9.209 15.89 L 9.215 15.819 L 9.221 15.748 L 9.229 15.676 L 9.237 15.605 L 9.246 15.534 L 9.255 15.463 L 9.266 15.391 L 9.277 15.32 L 9.289 15.249 L 9.301 15.178 L 9.315 15.107 L 9.329 15.036 L 9.344 14.965 L 9.359 14.894 L 9.376 14.824 L 9.393 14.753 L 9.411 14.682 L 9.429 14.612 L 9.449 14.542 L 9.469 14.472 L 9.489 14.402 L 9.511 14.332 L 9.533 14.262 L 9.556 14.192 L 9.58 14.123 L 9.605 14.054 L 9.63 13.985 L 9.656 13.916 L 9.683 13.847 L 9.71 13.779 L 9.739 13.71 L 9.768 13.642 L 9.797 13.575 L 9.828 13.507 L 9.859 13.44 L 9.891 13.372 L 9.923 13.306 L 9.957 13.239 L 9.991 13.173 L 10.026 13.107 L 10.061 13.041 L 10.097 12.976 L 10.134 12.91 L 10.172 12.845 L 10.21 12.781 L 10.249 12.717 L 10.289 12.653 L 10.329 12.589 L 10.37 12.526 L 10.412 12.463 L 10.455 12.401 L 10.498 12.338 L 10.542 12.277 L 10.586 12.215 L 10.631 12.154 L 10.677 12.094 L 10.724 12.034 L 10.771 11.974 L 10.819 11.914 L 10.867 11.855 L 10.917 11.797 L 10.966 11.739 L 11.017 11.681 L 11.068 11.624 L 11.12 11.567 L 11.172 11.511 L 11.225 11.455 L 11.279 11.4 L 11.333 11.345 L 11.388 11.29 L 11.444 11.236 L 11.5 11.183 L 11.556 11.13 L 11.614 11.078 L 11.671 11.026 L 11.73 10.974 L 11.789 10.924 L 11.849 10.873 L 11.909 10.824 L 11.97 10.775 L 12.031 10.726 L 12.093 10.678 L 12.155 10.631 L 12.218 10.584 L 12.282 10.537 L 12.346 10.492 L 12.41 10.447 L 12.476 10.402 L 12.541 10.358 L 12.607 10.315 L 12.674 10.272 L 12.741 10.23 L 12.809 10.189 L 12.877 10.148 L 12.945 10.108 L 13.015 10.068 L 13.084 10.029 L 13.154 9.991 L 13.225 9.954 L 13.295 9.917 L 13.367 9.88 L 13.439 9.845 L 13.511 9.81 L 13.583 9.776 L 13.656 9.742 L 13.73 9.71 L 13.804 9.677 L 13.878 9.646 L 13.953 9.615 L 14.028 9.585 L 14.103 9.556 L 14.179 9.528 L 14.255 9.5 L 14.331 9.473 L 14.408 9.446 L 14.485 9.421 L 14.563 9.396 L 14.641 9.372 L 14.719 9.348 L 14.797 9.326 L 14.876 9.304 L 14.955 9.283 L 15.034 9.262 L 15.114 9.243 L 15.194 9.224 L 15.274 9.206 L 15.354 9.189 L 15.435 9.172 L 15.516 9.156 L 15.556 9.149 Z M 16.55 14.957 L 15.628 15.177 L 15.574 10.61 L 15.53 10.62 L 15.465 10.635 L 15.399 10.651 L 15.334 10.668 L 15.27 10.685 L 15.205 10.703 L 15.141 10.722 L 15.077 10.741 L 15.013 10.76 L 14.95 10.781 L 14.887 10.802 L 14.824 10.823 L 14.761 10.846 L 14.699 10.868 L 14.637 10.892 L 14.576 10.916 L 14.514 10.94 L 14.453 10.965 L 14.392 10.991 L 14.332 11.017 L 14.272 11.044 L 14.213 11.071 L 14.153 11.099 L 14.094 11.127 L 14.036 11.156 L 13.978 11.186 L 13.92 11.216 L 13.862 11.247 L 13.805 11.278 L 13.748 11.31 L 13.692 11.342 L 13.636 11.374 L 13.581 11.408 L 13.526 11.441 L 13.471 11.476 L 13.417 11.51 L 13.363 11.546 L 13.31 11.581 L 13.257 11.618 L 13.204 11.654 L 13.152 11.691 L 13.1 11.729 L 13.049 11.767 L 12.998 11.806 L 12.948 11.845 L 12.898 11.884 L 12.849 11.924 L 12.8 11.965 L 12.752 12.005 L 12.704 12.047 L 12.656 12.088 L 12.609 12.13 L 12.563 12.173 L 12.517 12.216 L 12.471 12.259 L 12.426 12.303 L 12.382 12.347 L 12.338 12.391 L 12.295 12.436 L 12.252 12.481 L 12.209 12.527 L 12.167 12.573 L 12.126 12.619 L 12.085 12.666 L 12.045 12.713 L 12.005 12.76 L 11.966 12.808 L 11.927 12.856 L 11.889 12.904 L 11.851 12.953 L 11.814 13.002 L 11.778 13.051 L 11.742 13.1 L 11.706 13.15 L 11.672 13.201 L 11.637 13.251 L 11.604 13.302 L 11.57 13.353 L 11.538 13.404 L 11.506 13.455 L 11.474 13.507 L 11.443 13.559 L 11.413 13.611 L 11.383 13.664 L 11.354 13.717 L 11.326 13.77 L 11.298 13.823 L 11.27 13.876 L 11.244 13.93 L 11.217 13.983 L 11.192 14.037 L 11.167 14.091 L 11.142 14.146 L 11.118 14.2 L 11.095 14.255 L 11.072 14.31 L 11.05 14.365 L 11.029 14.42 L 11.008 14.475 L 10.988 14.53 L 10.968 14.586 L 10.949 14.642 L 10.93 14.697 L 10.912 14.753 L 10.895 14.809 L 10.878 14.865 L 10.862 14.922 L 10.847 14.978 L 10.832 15.034 L 10.818 15.091 L 10.804 15.147 L 10.791 15.204 L 10.778 15.26 L 10.767 15.317 L 10.755 15.374 L 10.745 15.43 L 10.735 15.487 L 10.725 15.544 L 10.716 15.601 L 10.708 15.658 L 10.7 15.714 L 10.693 15.771 L 10.687 15.828 L 10.681 15.885 L 10.676 15.942 L 10.671 15.999 L 10.667 16.056 L 10.663 16.112 L 10.66 16.169 L 10.658 16.226 L 10.656 16.282 L 10.655 16.339 L 10.654 16.395 L 10.654 16.452 L 10.655 16.508 L 10.656 16.564 L 10.658 16.62 L 10.66 16.677 L 10.663 16.733 L 10.667 16.788 L 10.671 16.844 L 10.675 16.9 L 10.681 16.955 L 10.686 17.011 L 10.693 17.066 L 10.7 17.121 L 10.707 17.176 L 10.715 17.231 L 10.724 17.286 L 10.733 17.34 L 10.742 17.395 L 10.753 17.449 L 10.764 17.503 L 10.775 17.557 L 10.787 17.611 L 10.799 17.664 L 10.812 17.717 L 10.826 17.77 L 10.84 17.823 L 10.854 17.876 L 10.869 17.928 L 10.885 17.981 L 10.901 18.033 L 10.917 18.084 L 10.935 18.136 L 10.952 18.187 L 10.97 18.238 L 10.989 18.289 L 11.008 18.34 L 11.028 18.39 L 11.048 18.44 L 11.069 18.49 L 11.09 18.539 L 11.111 18.589 L 11.133 18.638 L 11.156 18.686 L 11.179 18.734 L 11.202 18.782 L 11.227 18.83 L 11.251 18.878 L 11.276 18.925 L 11.301 18.972 L 11.327 19.018 L 11.353 19.064 L 11.38 19.11 L 11.407 19.156 L 11.435 19.201 L 11.462 19.246 L 11.491 19.29 L 11.52 19.335 L 11.549 19.379 L 11.579 19.422 L 11.609 19.465 L 11.639 19.508 L 11.67 19.55 L 11.701 19.592 L 11.733 19.634 L 11.765 19.675 L 11.797 19.716 L 11.83 19.757 L 11.863 19.797 L 11.897 19.837 L 11.931 19.876 L 11.965 19.915 L 12 19.954 L 12.035 19.992 L 12.07 20.03 L 12.106 20.067 L 12.142 20.104 L 12.178 20.141 L 12.215 20.177 L 12.252 20.213 L 12.289 20.248 L 12.326 20.283 L 12.364 20.317 L 12.403 20.352 L 12.441 20.385 L 12.48 20.418 L 12.519 20.451 L 12.558 20.483 L 12.598 20.515 L 12.638 20.547 L 12.678 20.578 L 12.718 20.608 L 12.759 20.638 L 12.8 20.668 L 12.841 20.697 L 12.883 20.726 L 12.924 20.754 L 12.966 20.782 L 13.008 20.81 L 13.051 20.837 L 13.094 20.863 L 13.136 20.889 L 13.179 20.915 L 13.222 20.94 L 13.266 20.964 L 13.309 20.989 L 13.353 21.012 L 13.397 21.036 L 13.441 21.058 L 13.485 21.08 L 13.53 21.102 L 13.574 21.124 L 13.619 21.144 L 13.664 21.165 L 13.709 21.185 L 13.754 21.204 L 13.8 21.223 L 13.845 21.242 L 13.891 21.26 L 13.936 21.277 L 13.982 21.294 L 14.028 21.311 L 14.074 21.327 L 14.12 21.342 L 14.166 21.357 L 14.213 21.372 L 14.259 21.386 L 14.306 21.4 L 14.352 21.413 L 14.399 21.426 L 14.445 21.438 L 14.492 21.45 L 14.539 21.461 L 14.585 21.472 L 14.632 21.482 L 14.679 21.492 L 14.726 21.501 L 14.773 21.51 L 14.82 21.518 L 14.867 21.526 L 14.914 21.533 L 14.961 21.54 L 15.007 21.547 L 15.054 21.553 L 15.101 21.558 L 15.148 21.563 L 15.195 21.568 L 15.242 21.572 L 15.289 21.575 L 15.336 21.578 L 15.382 21.581 L 15.429 21.583 L 15.476 21.585 L 15.522 21.586 L 15.569 21.587 L 15.615 21.587 L 15.661 21.587 L 15.708 21.587 L 15.754 21.586 L 15.8 21.584 L 15.846 21.582 L 15.892 21.58 L 15.938 21.577 L 15.984 21.573 L 16.029 21.57 L 16.075 21.565 L 16.12 21.561 L 16.165 21.556 L 16.21 21.55 L 16.256 21.544 L 16.3 21.538 L 16.345 21.531 L 16.39 21.523 L 16.434 21.516 L 16.478 21.507 L 16.523 21.499 L 16.567 21.49 L 16.61 21.48 L 16.654 21.47 L 16.697 21.46 L 16.741 21.449 L 16.784 21.438 L 16.826 21.427 L 16.869 21.415 L 16.912 21.403 L 16.954 21.39 L 16.996 21.377 L 17.038 21.363 L 17.08 21.349 L 17.121 21.335 L 17.162 21.32 L 17.203 21.305 L 17.244 21.29 L 17.285 21.274 L 17.325 21.258 L 17.365 21.241 L 17.405 21.224 L 17.444 21.207 L 17.484 21.189 L 17.523 21.171 L 17.562 21.152 L 17.6 21.134 L 17.639 21.114 L 17.676 21.095 L 17.714 21.075 L 17.752 21.055 L 17.789 21.034 L 17.826 21.014 L 17.863 20.992 L 17.899 20.971 L 17.935 20.949 L 17.971 20.927 L 18.006 20.904 L 18.042 20.882 L 18.076 20.859 L 18.111 20.835 L 18.145 20.812 L 18.179 20.788 L 18.213 20.763 L 18.246 20.739 L 18.279 20.714 L 18.312 20.689 L 18.344 20.663 L 18.377 20.637 L 18.408 20.611 L 18.44 20.585 L 18.471 20.559 L 18.502 20.532 L 18.532 20.505 L 18.562 20.477 L 18.592 20.45 L 18.621 20.422 L 18.65 20.394 L 18.679 20.366 L 18.707 20.337 L 18.735 20.309 L 18.763 20.28 L 18.79 20.25 L 18.817 20.221 L 18.844 20.191 L 18.87 20.161 L 18.896 20.131 L 18.921 20.101 L 18.947 20.071 L 18.971 20.04 L 18.996 20.009 L 19.02 19.978 L 19.043 19.947 L 19.067 19.916 L 19.09 19.884 L 19.112 19.852 L 19.134 19.82 L 19.156 19.788 L 19.178 19.756 L 19.199 19.724 L 19.219 19.691 L 19.24 19.659 L 19.26 19.626 L 19.279 19.593 L 19.298 19.56 L 19.317 19.527 L 19.335 19.493 L 19.353 19.46 L 19.371 19.426 L 19.388 19.393 L 19.405 19.359 L 19.422 19.325 L 19.438 19.291 L 19.453 19.257 L 19.469 19.223 L 19.484 19.189 L 19.498 19.154 L 19.512 19.12 L 19.526 19.085 L 19.539 19.051 L 19.552 19.016 L 19.565 18.982 L 19.577 18.947 L 19.589 18.912 L 19.6 18.877 L 19.611 18.843 L 19.622 18.808 L 19.632 18.773 L 19.642 18.738 L 19.652 18.703 L 19.661 18.668 L 19.669 18.633 L 19.678 18.597 L 19.686 18.562 L 19.693 18.528 L 19.7 18.492 L 19.707 18.457 L 19.714 18.422 L 19.72 18.387 L 19.725 18.352 L 19.73 18.317 L 19.735 18.282 L 19.74 18.247 L 19.744 18.212 L 19.748 18.177 L 19.751 18.142 L 19.754 18.107 L 19.757 18.072 L 19.759 18.038 L 19.761 18.003 L 19.762 17.968 L 19.764 17.934 L 19.764 17.899 L 19.765 17.864 L 19.765 17.83 L 19.765 17.796 L 19.764 17.761 L 19.763 17.727 L 19.762 17.693 L 19.76 17.659 L 19.758 17.625 L 19.755 17.591 L 19.753 17.558 L 19.749 17.524 L 19.746 17.49 L 19.742 17.457 L 19.738 17.423 L 19.733 17.39 L 19.729 17.357 L 19.723 17.324 L 19.718 17.291 L 19.712 17.259 L 19.706 17.226 L 19.699 17.194 L 19.692 17.161 L 19.685 17.129 L 19.678 17.097 L 19.67 17.065 L 19.662 17.034 L 19.653 17.002 L 19.645 16.971 L 19.636 16.939 L 19.626 16.908 L 19.617 16.877 L 19.607 16.846 L 19.596 16.816 L 19.586 16.785 L 19.575 16.755 L 19.564 16.725 L 19.552 16.695 L 19.54 16.666 L 19.528 16.636 L 19.516 16.607 L 19.503 16.577 L 19.49 16.548 L 19.477 16.52 L 19.464 16.491 L 19.45 16.463 L 19.436 16.435 L 19.422 16.407 L 19.407 16.379 L 19.393 16.352 L 19.378 16.324 L 19.362 16.297 L 19.347 16.27 L 19.331 16.244 L 19.315 16.217 L 19.299 16.191 L 19.282 16.165 L 19.266 16.139 L 19.249 16.114 L 19.231 16.088 L 19.214 16.063 L 19.196 16.039 L 19.179 16.014 L 19.16 15.99 L 19.142 15.966 L 19.124 15.942 L 19.105 15.918 L 19.086 15.895 L 19.067 15.872 L 19.048 15.849 L 19.028 15.826 L 19.009 15.804 L 18.989 15.782 L 18.969 15.76 L 18.948 15.738 L 18.928 15.717 L 18.907 15.696 L 18.886 15.675 L 18.866 15.655 L 18.844 15.634 L 18.823 15.614 L 18.802 15.594 L 18.78 15.575 L 18.758 15.556 L 18.737 15.537 L 18.715 15.518 L 18.692 15.5 L 18.67 15.482 L 18.648 15.464 L 18.625 15.446 L 18.602 15.429 L 18.58 15.412 L 18.557 15.395 L 18.534 15.379 L 18.51 15.362 L 18.487 15.346 L 18.464 15.331 L 18.44 15.316 L 18.417 15.3 L 18.393 15.286 L 18.369 15.271 L 18.345 15.257 L 18.321 15.243 L 18.297 15.229 L 18.273 15.216 L 18.249 15.203 L 18.225 15.19 L 18.2 15.177 L 18.176 15.165 L 18.151 15.153 L 18.127 15.141 L 18.102 15.13 L 18.077 15.119 L 18.053 15.108 L 18.028 15.097 L 18.003 15.087 L 17.978 15.077 L 17.953 15.067 L 17.928 15.058 L 17.903 15.048 L 17.878 15.04 L 17.853 15.031 L 17.828 15.023 L 17.803 15.015 L 17.778 15.007 L 17.753 14.999 L 17.728 14.992 L 17.703 14.985 L 17.678 14.978 L 17.653 14.972 L 17.628 14.966 L 17.603 14.96 L 17.578 14.954 L 17.552 14.949 L 17.527 14.944 L 17.502 14.939 L 17.478 14.935 L 17.452 14.931 L 17.428 14.927 L 17.402 14.923 L 17.378 14.92 L 17.353 14.916 L 17.328 14.913 L 17.303 14.911 L 17.279 14.908 L 17.254 14.906 L 17.229 14.904 L 17.205 14.903 L 17.18 14.902 L 17.156 14.9 L 17.131 14.9 L 17.107 14.899 L 17.083 14.899 L 17.059 14.899 L 17.034 14.899 L 17.01 14.899 L 16.986 14.9 L 16.963 14.901 L 16.939 14.902 L 16.915 14.903 L 16.892 14.905 L 16.868 14.907 L 16.845 14.909 L 16.821 14.911 L 16.798 14.914 L 16.775 14.917 L 16.752 14.92 L 16.729 14.923 L 16.706 14.927 L 16.683 14.93 L 16.661 14.934 L 16.638 14.938 L 16.616 14.943 L 16.594 14.947 L 16.572 14.952 L 16.55 14.957 Z" fill="currentColor" fill-rule="evenodd"></path>
</svg>