<svg xmlns="http://www.w3.org/2000/svg" width="21.028" height="32" viewBox="0 0 21.028 32" fill="none">
  <path d="M 9.806 19.982 L 9.806 28.102 C 9.806 28.414 9.682 28.712 9.462 28.932 C 9.242 29.153 8.943 29.276 8.632 29.276 C 8.321 29.276 8.022 29.153 7.802 28.932 C 7.582 28.712 7.458 28.414 7.458 28.102 L 7.458 19.993 C 7.785 20.232 8.177 20.365 8.581 20.375 C 9.022 20.387 9.454 20.249 9.806 19.982 Z M 19.802 17.634 C 19.504 17.634 19.218 17.753 19.008 17.963 C 18.797 18.174 18.679 18.46 18.679 18.757 L 18.679 20.173 C 18.679 20.484 18.802 20.783 19.023 21.003 C 19.243 21.223 19.541 21.346 19.853 21.346 C 20.164 21.346 20.462 21.223 20.683 21.003 C 20.903 20.783 21.026 20.484 21.026 20.173 L 21.026 18.814 C 21.035 18.653 21.009 18.491 20.95 18.341 C 20.891 18.191 20.8 18.056 20.684 17.944 C 20.568 17.832 20.429 17.746 20.277 17.693 C 20.125 17.64 19.963 17.62 19.802 17.634 Z M 4.908 23.059 C 4.504 23.047 4.113 22.914 3.785 22.677 L 3.785 30.821 C 3.785 31.133 3.909 31.433 4.131 31.655 C 4.352 31.876 4.652 32 4.965 32 C 5.277 32 5.577 31.876 5.798 31.655 C 6.02 31.433 6.144 31.133 6.144 30.821 L 6.144 22.734 C 5.777 22.971 5.344 23.085 4.908 23.059 Z M 16.14 15.197 C 15.988 15.189 15.836 15.213 15.693 15.266 C 15.55 15.319 15.42 15.4 15.31 15.505 C 15.199 15.61 15.112 15.737 15.052 15.877 C 14.992 16.017 14.961 16.168 14.961 16.32 L 14.961 22.576 C 14.961 22.889 15.085 23.189 15.306 23.41 C 15.528 23.631 15.828 23.756 16.14 23.756 C 16.453 23.756 16.753 23.631 16.974 23.41 C 17.196 23.189 17.32 22.889 17.32 22.576 L 17.32 16.399 C 17.329 16.237 17.302 16.075 17.243 15.924 C 17.183 15.773 17.091 15.636 16.974 15.524 C 16.856 15.412 16.716 15.327 16.563 15.274 C 16.409 15.222 16.246 15.203 16.084 15.219 L 16.14 15.197 Z M 12.411 17.601 C 11.988 17.598 11.576 17.464 11.232 17.219 L 11.232 25.384 C 11.232 25.697 11.356 25.997 11.577 26.218 C 11.799 26.439 12.099 26.564 12.411 26.564 C 12.724 26.564 13.024 26.439 13.245 26.218 C 13.467 25.997 13.591 25.697 13.591 25.384 L 13.591 17.23 C 13.234 17.495 12.799 17.634 12.355 17.623 L 12.411 17.601 Z M 2.359 23.857 L 2.359 1.045 C 2.356 0.767 2.243 0.501 2.046 0.305 C 1.848 0.11 1.581 0 1.303 0 L 1.056 0 C 0.778 0 0.511 0.11 0.313 0.305 C 0.115 0.501 0.003 0.767 0 1.045 L 0 23.857 C 0 24.137 0.111 24.405 0.309 24.603 C 0.507 24.801 0.776 24.913 1.056 24.913 L 1.303 24.913 C 1.583 24.913 1.851 24.801 2.049 24.603 C 2.247 24.405 2.359 24.137 2.359 23.857 Z M 5.032 22.194 L 4.785 22.194 C 4.505 22.194 4.236 22.083 4.038 21.885 C 3.84 21.687 3.729 21.419 3.729 21.139 L 3.729 3.763 C 3.732 3.485 3.845 3.219 4.042 3.023 C 4.24 2.828 4.507 2.718 4.785 2.718 L 5.032 2.718 C 5.31 2.718 5.577 2.828 5.775 3.023 C 5.972 3.219 6.085 3.485 6.088 3.763 L 6.088 21.161 C 6.088 21.441 5.977 21.71 5.779 21.908 C 5.581 22.106 5.312 22.217 5.032 22.217 L 5.032 22.194 Z M 8.75 19.521 L 8.491 19.521 C 8.214 19.521 7.949 19.411 7.753 19.215 C 7.557 19.019 7.447 18.754 7.447 18.477 L 7.447 6.458 C 7.445 6.32 7.471 6.183 7.523 6.055 C 7.575 5.927 7.652 5.811 7.749 5.713 C 7.846 5.614 7.962 5.536 8.089 5.483 C 8.217 5.43 8.353 5.403 8.491 5.403 L 8.75 5.403 C 9.028 5.406 9.293 5.518 9.489 5.716 C 9.685 5.913 9.794 6.18 9.794 6.458 L 9.794 18.477 C 9.794 18.754 9.684 19.019 9.488 19.215 C 9.292 19.411 9.027 19.521 8.75 19.521 Z M 12.468 16.769 L 12.232 16.769 C 11.954 16.769 11.687 16.66 11.489 16.464 C 11.291 16.269 11.179 16.003 11.176 15.725 L 11.176 9.255 C 11.167 9.111 11.187 8.966 11.236 8.83 C 11.285 8.694 11.361 8.57 11.46 8.465 C 11.559 8.359 11.679 8.276 11.811 8.218 C 11.944 8.161 12.087 8.132 12.232 8.132 L 12.479 8.132 C 12.759 8.132 13.027 8.243 13.225 8.441 C 13.423 8.639 13.535 8.908 13.535 9.188 L 13.535 15.702 C 13.536 15.842 13.51 15.98 13.457 16.11 C 13.405 16.239 13.328 16.357 13.229 16.456 C 13.131 16.555 13.014 16.634 12.885 16.688 C 12.757 16.742 12.618 16.769 12.479 16.769 L 12.468 16.769 Z M 16.197 14.355 L 15.949 14.355 C 15.669 14.355 15.401 14.243 15.203 14.045 C 15.005 13.847 14.894 13.579 14.894 13.299 L 14.894 11.625 C 14.897 11.347 15.009 11.081 15.207 10.886 C 15.404 10.69 15.671 10.581 15.949 10.581 L 16.197 10.581 C 16.475 10.581 16.742 10.69 16.939 10.886 C 17.137 11.081 17.249 11.347 17.252 11.625 L 17.252 13.299 C 17.252 13.577 17.143 13.844 16.947 14.041 C 16.752 14.239 16.486 14.352 16.208 14.355 L 16.197 14.355 Z" fill="currentColor" fill-rule="nonzero"></path>
</svg>