<svg xmlns="http://www.w3.org/2000/svg" width="32" height="32" viewBox="0 0 32 32" fill="none">
  <path d="M 16 32 C 24.837 32 32 24.837 32 16 C 32 7.163 24.837 0 16 0 C 7.163 0 0 7.163 0 16 C 0 24.837 7.163 32 16 32 Z M 20.991 7.453 C 21.234 6.59 20.397 6.08 19.632 6.625 L 8.955 14.232 C 8.125 14.823 8.255 16 9.151 16 L 11.962 16 L 11.962 15.978 L 17.442 15.978 L 12.977 17.554 L 11.009 24.547 C 10.766 25.41 11.603 25.92 12.368 25.375 L 23.046 17.768 C 23.875 17.177 23.745 16 22.85 16 L 18.586 16 L 20.991 7.453 Z" fill="currentColor" fill-rule="evenodd"></path>
</svg>