<svg xmlns="http://www.w3.org/2000/svg" width="12.376" height="12.378" viewBox="0 0 12.376 12.378" fill="none">
  <path d="M 11.742 4.621 C 11.686 4.632 11.633 4.654 11.586 4.686 C 11.539 4.718 11.499 4.758 11.467 4.806 C 11.436 4.853 11.414 4.906 11.404 4.962 C 11.393 5.018 11.393 5.075 11.405 5.131 C 11.625 6.209 11.506 7.329 11.064 8.337 C 10.623 9.345 9.88 10.192 8.939 10.761 C 7.997 11.331 6.902 11.595 5.804 11.518 C 4.706 11.44 3.659 11.025 2.807 10.329 C 1.954 9.633 1.338 8.69 1.042 7.63 C 0.747 6.57 0.786 5.445 1.156 4.408 C 1.525 3.371 2.206 2.474 3.105 1.84 C 4.005 1.205 5.078 0.865 6.179 0.865 C 6.721 0.864 7.26 0.947 7.778 1.11 C 7.886 1.142 8.003 1.13 8.103 1.077 C 8.203 1.024 8.279 0.933 8.313 0.825 C 8.347 0.717 8.337 0.6 8.286 0.499 C 8.235 0.398 8.146 0.322 8.038 0.285 C 6.744 -0.12 5.351 -0.089 4.076 0.374 C 2.8 0.837 1.712 1.707 0.979 2.849 C 0.247 3.991 -0.09 5.343 0.021 6.695 C 0.131 8.048 0.684 9.326 1.593 10.334 C 2.501 11.342 3.716 12.023 5.05 12.273 C 6.384 12.522 7.763 12.326 8.975 11.715 C 10.186 11.104 11.163 10.111 11.756 8.89 C 12.348 7.669 12.522 6.288 12.252 4.958 C 12.229 4.845 12.162 4.747 12.067 4.684 C 11.971 4.62 11.854 4.598 11.742 4.621 L 11.742 4.621 Z M 6.166 9.512 C 6.281 9.512 6.391 9.466 6.472 9.385 C 6.553 9.304 6.598 9.194 6.598 9.08 L 6.598 8.849 C 6.945 8.799 7.263 8.63 7.498 8.372 C 7.734 8.113 7.872 7.781 7.89 7.432 C 7.908 7.082 7.803 6.738 7.595 6.457 C 7.386 6.176 7.087 5.976 6.747 5.892 L 5.82 5.661 C 5.679 5.626 5.553 5.543 5.464 5.428 C 5.376 5.315 5.329 5.176 5.33 5.033 C 5.331 4.861 5.399 4.697 5.52 4.577 C 5.642 4.456 5.806 4.388 5.977 4.388 L 6.38 4.388 C 6.54 4.388 6.693 4.447 6.812 4.553 C 6.931 4.659 7.006 4.806 7.024 4.964 C 7.029 5.022 7.045 5.078 7.072 5.129 C 7.098 5.18 7.135 5.226 7.18 5.263 C 7.225 5.299 7.276 5.327 7.332 5.343 C 7.387 5.36 7.445 5.365 7.503 5.358 C 7.56 5.352 7.616 5.334 7.666 5.306 C 7.717 5.277 7.761 5.239 7.797 5.193 C 7.832 5.148 7.858 5.095 7.873 5.039 C 7.888 4.983 7.891 4.925 7.883 4.868 C 7.846 4.536 7.7 4.225 7.467 3.985 C 7.235 3.746 6.929 3.59 6.598 3.542 L 6.598 3.315 C 6.598 3.2 6.553 3.09 6.472 3.009 C 6.391 2.928 6.281 2.882 6.166 2.882 C 6.051 2.882 5.941 2.928 5.86 3.009 C 5.779 3.09 5.734 3.2 5.734 3.315 L 5.734 3.545 C 5.391 3.601 5.078 3.774 4.847 4.033 C 4.616 4.293 4.483 4.625 4.468 4.972 C 4.454 5.319 4.559 5.661 4.767 5.939 C 4.976 6.217 5.273 6.415 5.61 6.499 L 6.537 6.73 C 6.69 6.768 6.824 6.861 6.913 6.992 C 7.002 7.122 7.041 7.28 7.022 7.437 C 7.002 7.593 6.927 7.737 6.809 7.842 C 6.691 7.947 6.538 8.005 6.38 8.005 L 5.977 8.005 C 5.818 8.005 5.664 7.946 5.545 7.839 C 5.427 7.733 5.351 7.587 5.334 7.429 C 5.329 7.371 5.313 7.315 5.286 7.263 C 5.259 7.212 5.222 7.167 5.177 7.13 C 5.133 7.093 5.081 7.066 5.026 7.049 C 4.97 7.033 4.912 7.028 4.855 7.034 C 4.797 7.041 4.741 7.059 4.691 7.087 C 4.64 7.115 4.596 7.153 4.561 7.199 C 4.525 7.245 4.499 7.297 4.485 7.353 C 4.47 7.409 4.466 7.468 4.475 7.525 C 4.511 7.853 4.654 8.16 4.881 8.399 C 5.108 8.638 5.408 8.796 5.734 8.849 L 5.734 9.08 C 5.734 9.194 5.779 9.304 5.86 9.385 C 5.941 9.466 6.051 9.512 6.166 9.512 L 6.166 9.512 Z M 10.485 3.62 C 10.566 3.701 10.676 3.747 10.791 3.747 C 10.905 3.747 11.015 3.701 11.096 3.62 L 12.249 2.467 C 12.325 2.385 12.367 2.277 12.365 2.165 C 12.363 2.053 12.318 1.946 12.238 1.867 C 12.159 1.788 12.052 1.742 11.94 1.74 C 11.828 1.738 11.72 1.78 11.638 1.856 L 11.223 2.271 L 11.223 0.432 C 11.223 0.318 11.177 0.208 11.096 0.127 C 11.015 0.046 10.905 0 10.791 0 C 10.676 0 10.566 0.046 10.485 0.127 C 10.404 0.208 10.358 0.318 10.358 0.432 L 10.358 2.271 L 9.943 1.856 C 9.861 1.78 9.753 1.738 9.641 1.74 C 9.529 1.742 9.422 1.788 9.343 1.867 C 9.263 1.946 9.218 2.053 9.216 2.165 C 9.214 2.277 9.256 2.385 9.332 2.467 L 10.485 3.62 Z" fill="currentColor" fill-rule="nonzero"></path>
</svg>