<svg xmlns="http://www.w3.org/2000/svg" width="18.497" height="18.495" viewBox="0 0 18.497 18.495" fill="none">
  <path d="M 18.495 0 L 12.334 0 C 12.334 3.416 10.959 6.479 8.721 8.721 C 6.479 10.959 3.416 12.332 0 12.334 L 0 18.495 C 5.098 18.495 9.741 16.42 13.079 13.077 C 16.42 9.739 18.497 5.097 18.497 0 L 18.495 0 Z" fill="currentColor" fill-rule="nonzero"></path>
  <path d="M 12.334 0 L 12.334 -1 L 11.334 -1 L 11.334 0 L 12.334 0 Z M 8.721 8.721 L 9.428 9.429 L 9.429 9.428 L 8.721 8.721 Z M 0 12.334 L -0.001 11.334 L -1 11.334 L -1 12.334 L 0 12.334 Z M 0 18.495 L -1 18.495 L -1 19.495 L 0 19.495 L 0 18.495 Z M 13.079 13.077 L 12.372 12.369 L 12.371 12.37 L 13.079 13.077 Z M 18.497 0 L 19.497 0 L 19.497 -1 L 18.497 -1 L 18.497 0 Z M 18.495 -1 L 12.334 -1 L 12.334 1 L 18.495 1 L 18.495 -1 Z M 11.334 0 C 11.334 3.139 10.072 5.951 8.013 8.015 L 9.429 9.428 C 11.845 7.006 13.334 3.692 13.334 0 L 11.334 0 Z M 8.015 8.013 C 5.952 10.072 3.139 11.332 -0.001 11.334 L 0.001 13.334 C 3.692 13.332 7.006 11.845 9.428 9.429 L 8.015 8.013 Z M -1 12.334 L -1 18.495 L 1 18.495 L 1 12.334 L -1 12.334 Z M 0 19.495 C 5.374 19.495 10.268 17.307 13.786 13.783 L 12.371 12.37 C 9.214 15.533 4.823 17.495 0 17.495 L 0 19.495 Z M 13.785 13.784 C 17.307 10.266 19.497 5.372 19.497 0 L 17.497 0 C 17.497 4.821 15.533 9.212 12.372 12.369 L 13.785 13.784 Z M 18.497 -1 L 18.495 -1 L 18.495 1 L 18.497 1 L 18.497 -1 Z" fill="currentColor" fill-rule="nonzero"></path>
</svg>